<svg width="24" height="24" viewBox="0 0 24 24" fill="none" xmlns="http://www.w3.org/2000/svg">
<g clip-path="url(#clip0_3352_12509)">
<mask id="mask0_3352_12509" style="mask-type:alpha" maskUnits="userSpaceOnUse" x="0" y="0" width="24" height="24">
<rect width="24" height="24" fill="#D9D9D9"/>
</mask>
<g mask="url(#mask0_3352_12509)">
<path d="M2.535 5C2.64081 5 2.74425 5.03138 2.83223 5.09016C2.92021 5.14895 2.98878 5.23251 3.02928 5.33026C3.06977 5.42802 3.08036 5.53559 3.05972 5.63937C3.03908 5.74315 2.98812 5.83848 2.9133 5.9133C2.83848 5.98812 2.74315 6.03908 2.63937 6.05972C2.53559 6.08036 2.42802 6.06977 2.33026 6.02928C2.23251 5.98878 2.14895 5.92021 2.09016 5.83223C2.03138 5.74425 2 5.64081 2 5.535C2 5.39311 2.05637 5.25703 2.1567 5.1567C2.25703 5.05637 2.39311 5 2.535 5Z" fill="black"/>
<path d="M4.675 5C4.78082 5 4.88425 5.03138 4.97223 5.09016C5.06021 5.14895 5.12878 5.23251 5.16927 5.33026C5.20977 5.42802 5.22037 5.53559 5.19972 5.63937C5.17908 5.74315 5.12812 5.83848 5.0533 5.9133C4.97848 5.98812 4.88315 6.03908 4.77937 6.05972C4.67559 6.08036 4.56802 6.06977 4.47026 6.02928C4.3725 5.98878 4.28895 5.92021 4.23016 5.83223C4.17138 5.74425 4.14 5.64081 4.14 5.535C4.14 5.39311 4.19637 5.25703 4.2967 5.1567C4.39703 5.05637 4.53311 5 4.675 5Z" fill="black"/>
<path d="M6.989 5C7.09482 5 7.19825 5.03138 7.28623 5.09016C7.37421 5.14895 7.44279 5.23251 7.48328 5.33026C7.52377 5.42802 7.53437 5.53559 7.51372 5.63937C7.49308 5.74315 7.44212 5.83848 7.3673 5.9133C7.29248 5.98812 7.19715 6.03908 7.09337 6.05972C6.98959 6.08036 6.88202 6.06977 6.78426 6.02928C6.6865 5.98878 6.60295 5.92021 6.54416 5.83223C6.48538 5.74425 6.454 5.64081 6.454 5.535C6.454 5.39311 6.51037 5.25703 6.6107 5.1567C6.71103 5.05637 6.84711 5 6.989 5Z" fill="black"/>
<path d="M9.216 5C9.32182 5 9.42525 5.03138 9.51323 5.09016C9.60121 5.14895 9.66979 5.23251 9.71028 5.33026C9.75077 5.42802 9.76137 5.53559 9.74072 5.63937C9.72008 5.74315 9.66912 5.83848 9.5943 5.9133C9.51948 5.98812 9.42415 6.03908 9.32037 6.05972C9.21659 6.08036 9.10902 6.06977 9.01126 6.02928C8.9135 5.98878 8.82995 5.92021 8.77116 5.83223C8.71238 5.74425 8.681 5.64081 8.681 5.535C8.681 5.39311 8.73736 5.25703 8.83769 5.1567C8.93802 5.05637 9.07411 5 9.216 5Z" fill="black"/>
<path d="M15.897 5C16.0028 5 16.1063 5.03138 16.1942 5.09016C16.2822 5.14895 16.3508 5.23251 16.3913 5.33026C16.4318 5.42802 16.4424 5.53559 16.4217 5.63937C16.4011 5.74315 16.3501 5.83848 16.2753 5.9133C16.2005 5.98812 16.1052 6.03908 16.0014 6.05972C15.8976 6.08036 15.79 6.06977 15.6923 6.02928C15.5945 5.98878 15.5109 5.92021 15.4521 5.83223C15.3934 5.74425 15.362 5.64081 15.362 5.535C15.362 5.39311 15.4184 5.25703 15.5187 5.1567C15.619 5.05637 15.7551 5 15.897 5Z" fill="black"/>
<path d="M18.124 5C18.2298 5 18.3333 5.03138 18.4212 5.09016C18.5092 5.14895 18.5778 5.23251 18.6183 5.33026C18.6588 5.42802 18.6694 5.53559 18.6487 5.63937C18.6281 5.74315 18.5771 5.83848 18.5023 5.9133C18.4275 5.98812 18.3322 6.03908 18.2284 6.05972C18.1246 6.08036 18.017 6.06977 17.9193 6.02928C17.8215 5.98878 17.7379 5.92021 17.6791 5.83223C17.6204 5.74425 17.589 5.64081 17.589 5.535C17.589 5.39311 17.6454 5.25703 17.7457 5.1567C17.846 5.05637 17.9821 5 18.124 5Z" fill="black"/>
<path d="M20.395 5C20.5008 5 20.6043 5.03138 20.6922 5.09016C20.7802 5.14895 20.8488 5.23251 20.8893 5.33026C20.9298 5.42802 20.9404 5.53559 20.9197 5.63937C20.8991 5.74315 20.8481 5.83848 20.7733 5.9133C20.6985 5.98812 20.6032 6.03908 20.4994 6.05972C20.3956 6.08036 20.288 6.06977 20.1903 6.02928C20.0925 5.98878 20.0089 5.92021 19.9501 5.83223C19.8914 5.74425 19.86 5.64081 19.86 5.535C19.86 5.39311 19.9164 5.25703 20.0167 5.1567C20.117 5.05637 20.2531 5 20.395 5Z" fill="black"/>
<path d="M3.605 6.07C3.71081 6.07 3.81425 6.10138 3.90223 6.16016C3.99021 6.21895 4.05878 6.30251 4.09927 6.40027C4.13977 6.49802 4.15036 6.60559 4.12972 6.70937C4.10908 6.81315 4.05812 6.90848 3.9833 6.9833C3.90848 7.05812 3.81315 7.10908 3.70937 7.12972C3.60559 7.15036 3.49802 7.13977 3.40026 7.09927C3.30251 7.05878 3.21895 6.99021 3.16016 6.90223C3.10138 6.81425 3.07 6.71081 3.07 6.605C3.07 6.46311 3.12636 6.32703 3.2267 6.2267C3.32703 6.12636 3.46311 6.07 3.605 6.07Z" fill="black"/>
<path d="M12.557 6.07C12.6628 6.07 12.7663 6.10138 12.8542 6.16016C12.9422 6.21895 13.0108 6.30251 13.0513 6.40027C13.0918 6.49802 13.1024 6.60559 13.0817 6.70937C13.0611 6.81315 13.0101 6.90848 12.9353 6.9833C12.8605 7.05812 12.7652 7.10908 12.6614 7.12972C12.5576 7.15036 12.45 7.13977 12.3523 7.09927C12.2545 7.05878 12.1709 6.99021 12.1121 6.90223C12.0534 6.81425 12.022 6.71081 12.022 6.605C12.022 6.53474 12.0358 6.46517 12.0627 6.40027C12.0896 6.33536 12.129 6.27638 12.1787 6.2267C12.2284 6.17702 12.2874 6.13761 12.3523 6.11073C12.4172 6.08384 12.4867 6.07 12.557 6.07Z" fill="black"/>
<path d="M17.011 6.07C17.1168 6.07 17.2203 6.10138 17.3082 6.16016C17.3962 6.21895 17.4648 6.30251 17.5053 6.40027C17.5458 6.49802 17.5564 6.60559 17.5357 6.70937C17.5151 6.81315 17.4641 6.90848 17.3893 6.9833C17.3145 7.05812 17.2192 7.10908 17.1154 7.12972C17.0116 7.15036 16.904 7.13977 16.8063 7.09927C16.7085 7.05878 16.6249 6.99021 16.5661 6.90223C16.5074 6.81425 16.476 6.71081 16.476 6.605C16.476 6.53474 16.4898 6.46517 16.5167 6.40027C16.5436 6.33536 16.583 6.27638 16.6327 6.2267C16.6824 6.17702 16.7414 6.13761 16.8063 6.11073C16.8712 6.08384 16.9407 6.07 17.011 6.07Z" fill="black"/>
<path d="M21.465 6.07C21.5708 6.07 21.6742 6.10138 21.7622 6.16016C21.8502 6.21895 21.9188 6.30251 21.9593 6.40027C21.9998 6.49802 22.0103 6.60559 21.9897 6.70937C21.969 6.81315 21.9182 6.90848 21.8433 6.9833C21.7685 7.05812 21.6731 7.10908 21.5693 7.12972C21.4656 7.15036 21.358 7.13977 21.2603 7.09927C21.1625 7.05878 21.0789 6.99021 21.0201 6.90223C20.9614 6.81425 20.93 6.71081 20.93 6.605C20.93 6.46311 20.9863 6.32703 21.0867 6.2267C21.187 6.12636 21.3231 6.07 21.465 6.07Z" fill="black"/>
<path d="M2.535 7.229C2.64081 7.229 2.74425 7.26038 2.83223 7.31916C2.92021 7.37795 2.98878 7.4615 3.02928 7.55926C3.06977 7.65702 3.08036 7.76459 3.05972 7.86837C3.03908 7.97215 2.98812 8.06748 2.9133 8.1423C2.83848 8.21712 2.74315 8.26808 2.63937 8.28872C2.53559 8.30937 2.42802 8.29877 2.33026 8.25827C2.23251 8.21778 2.14895 8.14921 2.09016 8.06123C2.03138 7.97325 2 7.86982 2 7.764C2 7.62211 2.05637 7.48603 2.1567 7.3857C2.25703 7.28537 2.39311 7.229 2.535 7.229Z" fill="black"/>
<path d="M4.675 7.229C4.78082 7.229 4.88425 7.26038 4.97223 7.31916C5.06021 7.37795 5.12878 7.4615 5.16927 7.55926C5.20977 7.65702 5.22037 7.76459 5.19972 7.86837C5.17908 7.97215 5.12812 8.06748 5.0533 8.1423C4.97848 8.21712 4.88315 8.26808 4.77937 8.28872C4.67559 8.30937 4.56802 8.29877 4.47026 8.25827C4.3725 8.21778 4.28895 8.14921 4.23016 8.06123C4.17138 7.97325 4.14 7.86982 4.14 7.764C4.14 7.62211 4.19637 7.48603 4.2967 7.3857C4.39703 7.28537 4.53311 7.229 4.675 7.229Z" fill="black"/>
<path d="M11.443 7.229C11.5488 7.229 11.6522 7.26038 11.7402 7.31916C11.8282 7.37795 11.8968 7.4615 11.9373 7.55926C11.9778 7.65702 11.9884 7.76459 11.9677 7.86837C11.9471 7.97215 11.8961 8.06748 11.8213 8.1423C11.7465 8.21712 11.6512 8.26808 11.5474 8.28872C11.4436 8.30937 11.336 8.29877 11.2383 8.25827C11.1405 8.21778 11.057 8.14921 10.9982 8.06123C10.9394 7.97325 10.908 7.86982 10.908 7.764C10.908 7.62211 10.9644 7.48603 11.0647 7.3857C11.165 7.28537 11.3011 7.229 11.443 7.229Z" fill="black"/>
<path d="M13.67 7.229C13.7758 7.229 13.8793 7.26038 13.9672 7.31916C14.0552 7.37795 14.1238 7.4615 14.1643 7.55926C14.2048 7.65702 14.2154 7.76459 14.1947 7.86837C14.1741 7.97215 14.1231 8.06748 14.0483 8.1423C13.9735 8.21712 13.8782 8.26808 13.7744 8.28872C13.6706 8.30937 13.563 8.29877 13.4653 8.25827C13.3675 8.21778 13.2839 8.14921 13.2251 8.06123C13.1664 7.97325 13.135 7.86982 13.135 7.764C13.135 7.62211 13.1914 7.48603 13.2917 7.3857C13.392 7.28537 13.5281 7.229 13.67 7.229Z" fill="black"/>
<path d="M15.897 7.229C16.0028 7.229 16.1063 7.26038 16.1942 7.31916C16.2822 7.37795 16.3508 7.4615 16.3913 7.55926C16.4318 7.65702 16.4424 7.76459 16.4217 7.86837C16.4011 7.97215 16.3501 8.06748 16.2753 8.1423C16.2005 8.21712 16.1052 8.26808 16.0014 8.28872C15.8976 8.30937 15.79 8.29877 15.6923 8.25827C15.5945 8.21778 15.5109 8.14921 15.4521 8.06123C15.3934 7.97325 15.362 7.86982 15.362 7.764C15.362 7.62211 15.4184 7.48603 15.5187 7.3857C15.619 7.28537 15.7551 7.229 15.897 7.229Z" fill="black"/>
<path d="M20.395 7.229C20.5008 7.229 20.6043 7.26038 20.6922 7.31916C20.7802 7.37795 20.8488 7.4615 20.8893 7.55926C20.9298 7.65702 20.9404 7.76459 20.9197 7.86837C20.8991 7.97215 20.8481 8.06748 20.7733 8.1423C20.6985 8.21712 20.6032 8.26808 20.4994 8.28872C20.3956 8.30937 20.288 8.29877 20.1903 8.25827C20.0925 8.21778 20.0089 8.14921 19.9501 8.06123C19.8914 7.97325 19.86 7.86982 19.86 7.764C19.86 7.62211 19.9164 7.48603 20.0167 7.3857C20.117 7.28537 20.2531 7.229 20.395 7.229Z" fill="black"/>
<path d="M5.876 8.343C5.98182 8.343 6.08525 8.37438 6.17323 8.43316C6.26121 8.49195 6.32978 8.5755 6.37027 8.67326C6.41077 8.77102 6.42137 8.87859 6.40072 8.98237C6.38008 9.08615 6.32912 9.18148 6.2543 9.2563C6.17948 9.33112 6.08415 9.38208 5.98037 9.40272C5.87659 9.42337 5.76902 9.41277 5.67126 9.37227C5.5735 9.33178 5.48995 9.26321 5.43116 9.17523C5.37238 9.08725 5.341 8.98382 5.341 8.878C5.341 8.73611 5.39737 8.60003 5.4977 8.4997C5.59803 8.39937 5.73411 8.343 5.876 8.343Z" fill="black"/>
<path d="M10.33 8.343C10.4358 8.343 10.5392 8.37438 10.6272 8.43316C10.7152 8.49195 10.7838 8.5755 10.8243 8.67326C10.8648 8.77102 10.8754 8.87859 10.8547 8.98237C10.8341 9.08615 10.7831 9.18148 10.7083 9.2563C10.6335 9.33112 10.5382 9.38208 10.4344 9.40272C10.3306 9.42337 10.223 9.41277 10.1253 9.37227C10.0275 9.33178 9.94395 9.26321 9.88516 9.17523C9.82638 9.08725 9.795 8.98382 9.795 8.878C9.795 8.73611 9.85136 8.60003 9.95169 8.4997C10.052 8.39937 10.1881 8.343 10.33 8.343Z" fill="black"/>
<path d="M12.557 8.343C12.6628 8.343 12.7663 8.37438 12.8542 8.43316C12.9422 8.49195 13.0108 8.5755 13.0513 8.67326C13.0918 8.77102 13.1024 8.87859 13.0817 8.98237C13.0611 9.08615 13.0101 9.18148 12.9353 9.2563C12.8605 9.33112 12.7652 9.38208 12.6614 9.40272C12.5576 9.42337 12.45 9.41277 12.3523 9.37227C12.2545 9.33178 12.1709 9.26321 12.1121 9.17523C12.0534 9.08725 12.022 8.98382 12.022 8.878C12.022 8.80775 12.0358 8.73817 12.0627 8.67326C12.0896 8.60835 12.129 8.54938 12.1787 8.4997C12.2284 8.45002 12.2874 8.41061 12.3523 8.38373C12.4172 8.35684 12.4867 8.343 12.557 8.343Z" fill="black"/>
<path d="M17.011 8.343C17.1168 8.343 17.2203 8.37438 17.3082 8.43316C17.3962 8.49195 17.4648 8.5755 17.5053 8.67326C17.5458 8.77102 17.5564 8.87859 17.5357 8.98237C17.5151 9.08615 17.4641 9.18148 17.3893 9.2563C17.3145 9.33112 17.2192 9.38208 17.1154 9.40272C17.0116 9.42337 16.904 9.41277 16.8063 9.37227C16.7085 9.33178 16.6249 9.26321 16.5661 9.17523C16.5074 9.08725 16.476 8.98382 16.476 8.878C16.476 8.80775 16.4898 8.73817 16.5167 8.67326C16.5436 8.60835 16.583 8.54938 16.6327 8.4997C16.6824 8.45002 16.7414 8.41061 16.8063 8.38373C16.8712 8.35684 16.9407 8.343 17.011 8.343Z" fill="black"/>
<path d="M19.325 8.343C19.4308 8.343 19.5343 8.37438 19.6222 8.43316C19.7102 8.49195 19.7788 8.5755 19.8193 8.67326C19.8598 8.77102 19.8704 8.87859 19.8497 8.98237C19.8291 9.08615 19.7781 9.18148 19.7033 9.2563C19.6285 9.33112 19.5332 9.38208 19.4294 9.40272C19.3256 9.42337 19.218 9.41277 19.1203 9.37227C19.0225 9.33178 18.9389 9.26321 18.8801 9.17523C18.8214 9.08725 18.79 8.98382 18.79 8.878C18.79 8.73611 18.8464 8.60003 18.9467 8.4997C19.047 8.39937 19.1831 8.343 19.325 8.343Z" fill="black"/>
<path d="M2.535 9.458C2.64081 9.458 2.74425 9.48938 2.83223 9.54816C2.92021 9.60695 2.98878 9.6905 3.02928 9.78826C3.06977 9.88602 3.08036 9.99359 3.05972 10.0974C3.03908 10.2012 2.98812 10.2965 2.9133 10.3713C2.83848 10.4461 2.74315 10.4971 2.63937 10.5177C2.53559 10.5384 2.42802 10.5278 2.33026 10.4873C2.23251 10.4468 2.14895 10.3782 2.09016 10.2902C2.03138 10.2022 2 10.0988 2 9.993C2 9.85111 2.05637 9.71503 2.1567 9.6147C2.25703 9.51437 2.39311 9.458 2.535 9.458Z" fill="black"/>
<path d="M9.216 9.458C9.32182 9.458 9.42525 9.48938 9.51323 9.54816C9.60121 9.60695 9.66979 9.6905 9.71028 9.78826C9.75077 9.88602 9.76137 9.99359 9.74072 10.0974C9.72008 10.2012 9.66912 10.2965 9.5943 10.3713C9.51948 10.4461 9.42415 10.4971 9.32037 10.5177C9.21659 10.5384 9.10902 10.5278 9.01126 10.4873C8.9135 10.4468 8.82995 10.3782 8.77116 10.2902C8.71238 10.2022 8.681 10.0988 8.681 9.993C8.681 9.85111 8.73736 9.71503 8.83769 9.6147C8.93802 9.51437 9.07411 9.458 9.216 9.458Z" fill="black"/>
<path d="M18.124 9.458C18.2298 9.458 18.3333 9.48938 18.4212 9.54816C18.5092 9.60695 18.5778 9.6905 18.6183 9.78826C18.6588 9.88602 18.6694 9.99359 18.6487 10.0974C18.6281 10.2012 18.5771 10.2965 18.5023 10.3713C18.4275 10.4461 18.3322 10.4971 18.2284 10.5177C18.1246 10.5384 18.017 10.5278 17.9193 10.4873C17.8215 10.4468 17.7379 10.3782 17.6791 10.2902C17.6204 10.2022 17.589 10.0988 17.589 9.993C17.589 9.85111 17.6454 9.71503 17.7457 9.6147C17.846 9.51437 17.9821 9.458 18.124 9.458Z" fill="black"/>
<path d="M20.395 9.458C20.5008 9.458 20.6043 9.48938 20.6922 9.54816C20.7802 9.60695 20.8488 9.6905 20.8893 9.78826C20.9298 9.88602 20.9404 9.99359 20.9197 10.0974C20.8991 10.2012 20.8481 10.2965 20.7733 10.3713C20.6985 10.4461 20.6032 10.4971 20.4994 10.5177C20.3956 10.5384 20.288 10.5278 20.1903 10.4873C20.0925 10.4468 20.0089 10.3782 19.9501 10.2902C19.8914 10.2022 19.86 10.0988 19.86 9.993C19.86 9.85111 19.9164 9.71503 20.0167 9.6147C20.117 9.51437 20.2531 9.458 20.395 9.458Z" fill="black"/>
<path d="M3.605 10.572C3.71081 10.572 3.81425 10.6034 3.90223 10.6622C3.99021 10.721 4.05878 10.8045 4.09927 10.9023C4.13977 11 4.15036 11.1076 4.12972 11.2114C4.10908 11.3152 4.05812 11.4105 3.9833 11.4853C3.90848 11.5601 3.81315 11.6111 3.70937 11.6317C3.60559 11.6524 3.49802 11.6418 3.40026 11.6013C3.30251 11.5608 3.21895 11.4922 3.16016 11.4042C3.10138 11.3162 3.07 11.2128 3.07 11.107C3.07 10.9651 3.12636 10.829 3.2267 10.7287C3.32703 10.6284 3.46311 10.572 3.605 10.572Z" fill="black"/>
<path d="M5.876 10.572C5.98182 10.572 6.08525 10.6034 6.17323 10.6622C6.26121 10.721 6.32978 10.8045 6.37027 10.9023C6.41077 11 6.42137 11.1076 6.40072 11.2114C6.38008 11.3152 6.32912 11.4105 6.2543 11.4853C6.17948 11.5601 6.08415 11.6111 5.98037 11.6317C5.87659 11.6524 5.76902 11.6418 5.67126 11.6013C5.5735 11.5608 5.48995 11.4922 5.43116 11.4042C5.37238 11.3162 5.341 11.2128 5.341 11.107C5.341 10.9651 5.39737 10.829 5.4977 10.7287C5.59803 10.6284 5.73411 10.572 5.876 10.572Z" fill="black"/>
<path d="M12.557 10.572C12.6628 10.572 12.7663 10.6034 12.8542 10.6622C12.9422 10.721 13.0108 10.8045 13.0513 10.9023C13.0918 11 13.1024 11.1076 13.0817 11.2114C13.0611 11.3152 13.0101 11.4105 12.9353 11.4853C12.8605 11.5601 12.7652 11.6111 12.6614 11.6317C12.5576 11.6524 12.45 11.6418 12.3523 11.6013C12.2545 11.5608 12.1709 11.4922 12.1121 11.4042C12.0534 11.3162 12.022 11.2128 12.022 11.107C12.022 11.0367 12.0358 10.9672 12.0627 10.9023C12.0896 10.8374 12.129 10.7784 12.1787 10.7287C12.2284 10.679 12.2874 10.6396 12.3523 10.6127C12.4172 10.5858 12.4867 10.572 12.557 10.572Z" fill="black"/>
<path d="M14.784 10.572C14.8898 10.572 14.9933 10.6034 15.0812 10.6622C15.1692 10.721 15.2378 10.8045 15.2783 10.9023C15.3188 11 15.3294 11.1076 15.3087 11.2114C15.2881 11.3152 15.2371 11.4105 15.1623 11.4853C15.0875 11.5601 14.9922 11.6111 14.8884 11.6317C14.7846 11.6524 14.677 11.6418 14.5793 11.6013C14.4815 11.5608 14.3979 11.4922 14.3391 11.4042C14.2804 11.3162 14.249 11.2128 14.249 11.107C14.249 10.9651 14.3054 10.829 14.4057 10.7287C14.506 10.6284 14.6421 10.572 14.784 10.572Z" fill="black"/>
<path d="M19.325 10.572C19.4308 10.572 19.5343 10.6034 19.6222 10.6622C19.7102 10.721 19.7788 10.8045 19.8193 10.9023C19.8598 11 19.8704 11.1076 19.8497 11.2114C19.8291 11.3152 19.7781 11.4105 19.7033 11.4853C19.6285 11.5601 19.5332 11.6111 19.4294 11.6317C19.3256 11.6524 19.218 11.6418 19.1203 11.6013C19.0225 11.5608 18.9389 11.4922 18.8801 11.4042C18.8214 11.3162 18.79 11.2128 18.79 11.107C18.79 10.9651 18.8464 10.829 18.9467 10.7287C19.047 10.6284 19.1831 10.572 19.325 10.572Z" fill="black"/>
<path d="M21.465 10.572C21.5708 10.572 21.6742 10.6034 21.7622 10.6622C21.8502 10.721 21.9188 10.8045 21.9593 10.9023C21.9998 11 22.0103 11.1076 21.9897 11.2114C21.969 11.3152 21.9182 11.4105 21.8433 11.4853C21.7685 11.5601 21.6731 11.6111 21.5693 11.6317C21.4656 11.6524 21.358 11.6418 21.2603 11.6013C21.1625 11.5608 21.0789 11.4922 21.0201 11.4042C20.9614 11.3162 20.93 11.2128 20.93 11.107C20.93 10.9651 20.9863 10.829 21.0867 10.7287C21.187 10.6284 21.3231 10.572 21.465 10.572Z" fill="black"/>
<path d="M2.535 11.687C2.64081 11.687 2.74425 11.7184 2.83223 11.7772C2.92021 11.836 2.98878 11.9195 3.02928 12.0173C3.06977 12.115 3.08036 12.2226 3.05972 12.3264C3.03908 12.4302 2.98812 12.5255 2.9133 12.6003C2.83848 12.6751 2.74315 12.7261 2.63937 12.7467C2.53559 12.7674 2.42802 12.7568 2.33026 12.7163C2.23251 12.6758 2.14895 12.6072 2.09016 12.5192C2.03138 12.4312 2 12.3278 2 12.222C2 12.0801 2.05637 11.944 2.1567 11.8437C2.25703 11.7434 2.39311 11.687 2.535 11.687Z" fill="black"/>
<path d="M11.443 11.687C11.5488 11.687 11.6522 11.7184 11.7402 11.7772C11.8282 11.836 11.8968 11.9195 11.9373 12.0173C11.9778 12.115 11.9884 12.2226 11.9677 12.3264C11.9471 12.4302 11.8961 12.5255 11.8213 12.6003C11.7465 12.6751 11.6512 12.7261 11.5474 12.7467C11.4436 12.7674 11.336 12.7568 11.2383 12.7163C11.1405 12.6758 11.057 12.6072 10.9982 12.5192C10.9394 12.4312 10.908 12.3278 10.908 12.222C10.908 12.0801 10.9644 11.944 11.0647 11.8437C11.165 11.7434 11.3011 11.687 11.443 11.687Z" fill="black"/>
<path d="M18.124 11.687C18.2298 11.687 18.3333 11.7184 18.4212 11.7772C18.5092 11.836 18.5778 11.9195 18.6183 12.0173C18.6588 12.115 18.6694 12.2226 18.6487 12.3264C18.6281 12.4302 18.5771 12.5255 18.5023 12.6003C18.4275 12.6751 18.3322 12.7261 18.2284 12.7467C18.1246 12.7674 18.017 12.7568 17.9193 12.7163C17.8215 12.6758 17.7379 12.6072 17.6791 12.5192C17.6204 12.4312 17.589 12.3278 17.589 12.222C17.589 12.0801 17.6454 11.944 17.7457 11.8437C17.846 11.7434 17.9821 11.687 18.124 11.687Z" fill="black"/>
<path d="M20.395 11.687C20.5008 11.687 20.6043 11.7184 20.6922 11.7772C20.7802 11.836 20.8488 11.9195 20.8893 12.0173C20.9298 12.115 20.9404 12.2226 20.9197 12.3264C20.8991 12.4302 20.8481 12.5255 20.7733 12.6003C20.6985 12.6751 20.6032 12.7261 20.4994 12.7467C20.3956 12.7674 20.288 12.7568 20.1903 12.7163C20.0925 12.6758 20.0089 12.6072 19.9501 12.5192C19.8914 12.4312 19.86 12.3278 19.86 12.222C19.86 12.0801 19.9164 11.944 20.0167 11.8437C20.117 11.7434 20.2531 11.687 20.395 11.687Z" fill="black"/>
<path d="M3.605 12.801C3.71081 12.801 3.81425 12.8324 3.90223 12.8912C3.99021 12.95 4.05878 13.0335 4.09927 13.1313C4.13977 13.229 4.15036 13.3366 4.12972 13.4404C4.10908 13.5442 4.05812 13.6395 3.9833 13.7143C3.90848 13.7891 3.81315 13.8401 3.70937 13.8607C3.60559 13.8814 3.49802 13.8708 3.40026 13.8303C3.30251 13.7898 3.21895 13.7212 3.16016 13.6332C3.10138 13.5452 3.07 13.4418 3.07 13.336C3.07 13.1941 3.12636 13.058 3.2267 12.9577C3.32703 12.8574 3.46311 12.801 3.605 12.801Z" fill="black"/>
<path d="M5.876 12.801C5.98182 12.801 6.08525 12.8324 6.17323 12.8912C6.26121 12.95 6.32978 13.0335 6.37027 13.1313C6.41077 13.229 6.42137 13.3366 6.40072 13.4404C6.38008 13.5442 6.32912 13.6395 6.2543 13.7143C6.17948 13.7891 6.08415 13.8401 5.98037 13.8607C5.87659 13.8814 5.76902 13.8708 5.67126 13.8303C5.5735 13.7898 5.48995 13.7212 5.43116 13.6332C5.37238 13.5452 5.341 13.4418 5.341 13.336C5.341 13.1941 5.39737 13.058 5.4977 12.9577C5.59803 12.8574 5.73411 12.801 5.876 12.801Z" fill="black"/>
<path d="M8.103 12.801C8.20882 12.801 8.31225 12.8324 8.40023 12.8912C8.48821 12.95 8.55679 13.0335 8.59728 13.1313C8.63777 13.229 8.64837 13.3366 8.62772 13.4404C8.60708 13.5442 8.55612 13.6395 8.4813 13.7143C8.40648 13.7891 8.31115 13.8401 8.20737 13.8607C8.10359 13.8814 7.99602 13.8708 7.89826 13.8303C7.8005 13.7898 7.71695 13.7212 7.65816 13.6332C7.59938 13.5452 7.568 13.4418 7.568 13.336C7.568 13.1941 7.62436 13.058 7.72469 12.9577C7.82502 12.8574 7.96111 12.801 8.103 12.801Z" fill="black"/>
<path d="M10.33 12.801C10.4358 12.801 10.5392 12.8324 10.6272 12.8912C10.7152 12.95 10.7838 13.0335 10.8243 13.1313C10.8648 13.229 10.8754 13.3366 10.8547 13.4404C10.8341 13.5442 10.7831 13.6395 10.7083 13.7143C10.6335 13.7891 10.5382 13.8401 10.4344 13.8607C10.3306 13.8814 10.223 13.8708 10.1253 13.8303C10.0275 13.7898 9.94395 13.7212 9.88516 13.6332C9.82638 13.5452 9.795 13.4418 9.795 13.336C9.795 13.1941 9.85136 13.058 9.95169 12.9577C10.052 12.8574 10.1881 12.801 10.33 12.801Z" fill="black"/>
<path d="M14.784 12.801C14.8898 12.801 14.9933 12.8324 15.0812 12.8912C15.1692 12.95 15.2378 13.0335 15.2783 13.1313C15.3188 13.229 15.3294 13.3366 15.3087 13.4404C15.2881 13.5442 15.2371 13.6395 15.1623 13.7143C15.0875 13.7891 14.9922 13.8401 14.8884 13.8607C14.7846 13.8814 14.677 13.8708 14.5793 13.8303C14.4815 13.7898 14.3979 13.7212 14.3391 13.6332C14.2804 13.5452 14.249 13.4418 14.249 13.336C14.249 13.1941 14.3054 13.058 14.4057 12.9577C14.506 12.8574 14.6421 12.801 14.784 12.801Z" fill="black"/>
<path d="M17.011 12.801C17.1168 12.801 17.2203 12.8324 17.3082 12.8912C17.3962 12.95 17.4648 13.0335 17.5053 13.1313C17.5458 13.229 17.5564 13.3366 17.5357 13.4404C17.5151 13.5442 17.4641 13.6395 17.3893 13.7143C17.3145 13.7891 17.2192 13.8401 17.1154 13.8607C17.0116 13.8814 16.904 13.8708 16.8063 13.8303C16.7085 13.7898 16.6249 13.7212 16.5661 13.6332C16.5074 13.5452 16.476 13.4418 16.476 13.336C16.476 13.2657 16.4898 13.1962 16.5167 13.1313C16.5436 13.0664 16.583 13.0074 16.6327 12.9577C16.6824 12.908 16.7414 12.8686 16.8063 12.8417C16.8712 12.8148 16.9407 12.801 17.011 12.801Z" fill="black"/>
<path d="M21.465 12.801C21.5708 12.801 21.6742 12.8324 21.7622 12.8912C21.8502 12.95 21.9188 13.0335 21.9593 13.1313C21.9998 13.229 22.0103 13.3366 21.9897 13.4404C21.969 13.5442 21.9182 13.6395 21.8433 13.7143C21.7685 13.7891 21.6731 13.8401 21.5693 13.8607C21.4656 13.8814 21.358 13.8708 21.2603 13.8303C21.1625 13.7898 21.0789 13.7212 21.0201 13.6332C20.9614 13.5452 20.93 13.4418 20.93 13.336C20.93 13.1941 20.9863 13.058 21.0867 12.9577C21.187 12.8574 21.3231 12.801 21.465 12.801Z" fill="black"/>
<path d="M4.675 13.916C4.78082 13.916 4.88425 13.9474 4.97223 14.0062C5.06021 14.065 5.12878 14.1485 5.16927 14.2463C5.20977 14.344 5.22037 14.4516 5.19972 14.5554C5.17908 14.6592 5.12812 14.7545 5.0533 14.8293C4.97848 14.9041 4.88315 14.9551 4.77937 14.9757C4.67559 14.9964 4.56802 14.9858 4.47026 14.9453C4.3725 14.9048 4.28895 14.8362 4.23016 14.7482C4.17138 14.6602 4.14 14.5568 4.14 14.451C4.14 14.3091 4.19637 14.173 4.2967 14.0727C4.39703 13.9724 4.53311 13.916 4.675 13.916Z" fill="black"/>
<path d="M6.989 13.916C7.09482 13.916 7.19825 13.9474 7.28623 14.0062C7.37421 14.065 7.44279 14.1485 7.48328 14.2463C7.52377 14.344 7.53437 14.4516 7.51372 14.5554C7.49308 14.6592 7.44212 14.7545 7.3673 14.8293C7.29248 14.9041 7.19715 14.9551 7.09337 14.9757C6.98959 14.9964 6.88202 14.9858 6.78426 14.9453C6.6865 14.9048 6.60295 14.8362 6.54416 14.7482C6.48538 14.6602 6.454 14.5568 6.454 14.451C6.454 14.3091 6.51037 14.173 6.6107 14.0727C6.71103 13.9724 6.84711 13.916 6.989 13.916Z" fill="black"/>
<path d="M9.216 13.916C9.32182 13.916 9.42525 13.9474 9.51323 14.0062C9.60121 14.065 9.66979 14.1485 9.71028 14.2463C9.75077 14.344 9.76137 14.4516 9.74072 14.5554C9.72008 14.6592 9.66912 14.7545 9.5943 14.8293C9.51948 14.9041 9.42415 14.9551 9.32037 14.9757C9.21659 14.9964 9.10902 14.9858 9.01126 14.9453C8.9135 14.9048 8.82995 14.8362 8.77116 14.7482C8.71238 14.6602 8.681 14.5568 8.681 14.451C8.681 14.3091 8.73736 14.173 8.83769 14.0727C8.93802 13.9724 9.07411 13.916 9.216 13.916Z" fill="black"/>
<path d="M15.897 13.916C16.0028 13.916 16.1063 13.9474 16.1942 14.0062C16.2822 14.065 16.3508 14.1485 16.3913 14.2463C16.4318 14.344 16.4424 14.4516 16.4217 14.5554C16.4011 14.6592 16.3501 14.7545 16.2753 14.8293C16.2005 14.9041 16.1052 14.9551 16.0014 14.9757C15.8976 14.9964 15.79 14.9858 15.6923 14.9453C15.5945 14.9048 15.5109 14.8362 15.4521 14.7482C15.3934 14.6602 15.362 14.5568 15.362 14.451C15.362 14.3091 15.4184 14.173 15.5187 14.0727C15.619 13.9724 15.7551 13.916 15.897 13.916Z" fill="black"/>
<path d="M5.876 15.03C5.98182 15.03 6.08525 15.0614 6.17323 15.1201C6.26121 15.1789 6.32978 15.2625 6.37027 15.3603C6.41077 15.458 6.42137 15.5656 6.40072 15.6694C6.38008 15.7732 6.32912 15.8685 6.2543 15.9433C6.17948 16.0181 6.08415 16.0691 5.98037 16.0897C5.87659 16.1104 5.76902 16.0998 5.67126 16.0593C5.5735 16.0188 5.48995 15.9502 5.43116 15.8622C5.37238 15.7743 5.341 15.6708 5.341 15.565C5.341 15.4947 5.35484 15.4252 5.38173 15.3603C5.40861 15.2954 5.44802 15.2364 5.4977 15.1867C5.54738 15.137 5.60635 15.0976 5.67126 15.0707C5.73617 15.0438 5.80575 15.03 5.876 15.03Z" fill="black"/>
<path d="M12.557 15.03C12.6628 15.03 12.7663 15.0614 12.8542 15.1201C12.9422 15.1789 13.0108 15.2625 13.0513 15.3603C13.0918 15.458 13.1024 15.5656 13.0817 15.6694C13.0611 15.7732 13.0101 15.8685 12.9353 15.9433C12.8605 16.0181 12.7652 16.0691 12.6614 16.0897C12.5576 16.1104 12.45 16.0998 12.3523 16.0593C12.2545 16.0188 12.1709 15.9502 12.1121 15.8622C12.0534 15.7743 12.022 15.6708 12.022 15.565C12.022 15.4947 12.0358 15.4252 12.0627 15.3603C12.0896 15.2954 12.129 15.2364 12.1787 15.1867C12.2284 15.137 12.2874 15.0976 12.3523 15.0707C12.4172 15.0438 12.4867 15.03 12.557 15.03Z" fill="black"/>
<path d="M14.784 15.03C14.8898 15.03 14.9933 15.0614 15.0812 15.1201C15.1692 15.1789 15.2378 15.2625 15.2783 15.3603C15.3188 15.458 15.3294 15.5656 15.3087 15.6694C15.2881 15.7732 15.2371 15.8685 15.1623 15.9433C15.0875 16.0181 14.9922 16.0691 14.8884 16.0897C14.7846 16.1104 14.677 16.0998 14.5793 16.0593C14.4815 16.0188 14.3979 15.9502 14.3391 15.8622C14.2804 15.7743 14.249 15.6708 14.249 15.565C14.249 15.4947 14.2628 15.4252 14.2897 15.3603C14.3166 15.2954 14.356 15.2364 14.4057 15.1867C14.4554 15.137 14.5144 15.0976 14.5793 15.0707C14.6442 15.0438 14.7137 15.03 14.784 15.03Z" fill="black"/>
<path d="M21.465 15.03C21.5708 15.03 21.6742 15.0614 21.7622 15.1201C21.8502 15.1789 21.9188 15.2625 21.9593 15.3603C21.9998 15.458 22.0103 15.5656 21.9897 15.6694C21.969 15.7732 21.9182 15.8685 21.8433 15.9433C21.7685 16.0181 21.6731 16.0691 21.5693 16.0897C21.4656 16.1104 21.358 16.0998 21.2603 16.0593C21.1625 16.0188 21.0789 15.9502 21.0201 15.8622C20.9614 15.7743 20.93 15.6708 20.93 15.565C20.93 15.4947 20.9438 15.4252 20.9707 15.3603C20.9976 15.2954 21.037 15.2364 21.0867 15.1867C21.1364 15.137 21.1954 15.0976 21.2603 15.0707C21.3252 15.0438 21.3947 15.03 21.465 15.03Z" fill="black"/>
<path d="M4.675 16.145C4.78082 16.145 4.88425 16.1764 4.97223 16.2351C5.06021 16.2939 5.12878 16.3775 5.16927 16.4753C5.20977 16.573 5.22037 16.6806 5.19972 16.7844C5.17908 16.8882 5.12812 16.9835 5.0533 17.0583C4.97848 17.1331 4.88315 17.1841 4.77937 17.2047C4.67559 17.2254 4.56802 17.2148 4.47026 17.1743C4.3725 17.1338 4.28895 17.0652 4.23016 16.9772C4.17138 16.8893 4.14 16.7858 4.14 16.68C4.14 16.5381 4.19637 16.402 4.2967 16.3017C4.39703 16.2014 4.53311 16.145 4.675 16.145Z" fill="black"/>
<path d="M9.216 16.145C9.32182 16.145 9.42525 16.1764 9.51323 16.2351C9.60121 16.2939 9.66979 16.3775 9.71028 16.4753C9.75077 16.573 9.76137 16.6806 9.74072 16.7844C9.72008 16.8882 9.66912 16.9835 9.5943 17.0583C9.51948 17.1331 9.42415 17.1841 9.32037 17.2047C9.21659 17.2254 9.10902 17.2148 9.01126 17.1743C8.9135 17.1338 8.82995 17.0652 8.77116 16.9772C8.71238 16.8893 8.681 16.7858 8.681 16.68C8.681 16.5381 8.73736 16.402 8.83769 16.3017C8.93802 16.2014 9.07411 16.145 9.216 16.145Z" fill="black"/>
<path d="M11.443 16.145C11.5488 16.145 11.6522 16.1764 11.7402 16.2351C11.8282 16.2939 11.8968 16.3775 11.9373 16.4753C11.9778 16.573 11.9884 16.6806 11.9677 16.7844C11.9471 16.8882 11.8961 16.9835 11.8213 17.0583C11.7465 17.1331 11.6512 17.1841 11.5474 17.2047C11.4436 17.2254 11.336 17.2148 11.2383 17.1743C11.1405 17.1338 11.057 17.0652 10.9982 16.9772C10.9394 16.8893 10.908 16.7858 10.908 16.68C10.908 16.5381 10.9644 16.402 11.0647 16.3017C11.165 16.2014 11.3011 16.145 11.443 16.145Z" fill="black"/>
<path d="M13.67 16.145C13.7758 16.145 13.8793 16.1764 13.9672 16.2351C14.0552 16.2939 14.1238 16.3775 14.1643 16.4753C14.2048 16.573 14.2154 16.6806 14.1947 16.7844C14.1741 16.8882 14.1231 16.9835 14.0483 17.0583C13.9735 17.1331 13.8782 17.1841 13.7744 17.2047C13.6706 17.2254 13.563 17.2148 13.4653 17.1743C13.3675 17.1338 13.2839 17.0652 13.2251 16.9772C13.1664 16.8893 13.135 16.7858 13.135 16.68C13.135 16.5381 13.1914 16.402 13.2917 16.3017C13.392 16.2014 13.5281 16.145 13.67 16.145Z" fill="black"/>
<path d="M18.124 16.145C18.2298 16.145 18.3333 16.1764 18.4212 16.2351C18.5092 16.2939 18.5778 16.3775 18.6183 16.4753C18.6588 16.573 18.6694 16.6806 18.6487 16.7844C18.6281 16.8882 18.5771 16.9835 18.5023 17.0583C18.4275 17.1331 18.3322 17.1841 18.2284 17.2047C18.1246 17.2254 18.017 17.2148 17.9193 17.1743C17.8215 17.1338 17.7379 17.0652 17.6791 16.9772C17.6204 16.8893 17.589 16.7858 17.589 16.68C17.589 16.5381 17.6454 16.402 17.7457 16.3017C17.846 16.2014 17.9821 16.145 18.124 16.145Z" fill="black"/>
<path d="M20.395 16.145C20.5008 16.145 20.6043 16.1764 20.6922 16.2351C20.7802 16.2939 20.8488 16.3775 20.8893 16.4753C20.9298 16.573 20.9404 16.6806 20.9197 16.7844C20.8991 16.8882 20.8481 16.9835 20.7733 17.0583C20.6985 17.1331 20.6032 17.1841 20.4994 17.2047C20.3956 17.2254 20.288 17.2148 20.1903 17.1743C20.0925 17.1338 20.0089 17.0652 19.9501 16.9772C19.8914 16.8893 19.86 16.7858 19.86 16.68C19.86 16.5381 19.9164 16.402 20.0167 16.3017C20.117 16.2014 20.2531 16.145 20.395 16.145Z" fill="black"/>
<path d="M3.605 17.304C3.71081 17.304 3.81425 17.3354 3.90223 17.3941C3.99021 17.4529 4.05878 17.5365 4.09927 17.6343C4.13977 17.732 4.15036 17.8396 4.12972 17.9434C4.10908 18.0472 4.05812 18.1425 3.9833 18.2173C3.90848 18.2921 3.81315 18.3431 3.70937 18.3637C3.60559 18.3844 3.49802 18.3738 3.40026 18.3333C3.30251 18.2928 3.21895 18.2242 3.16016 18.1362C3.10138 18.0483 3.07 17.9448 3.07 17.839C3.07 17.6971 3.12636 17.561 3.2267 17.4607C3.32703 17.3604 3.46311 17.304 3.605 17.304Z" fill="black"/>
<path d="M14.784 17.304C14.8898 17.304 14.9933 17.3354 15.0812 17.3941C15.1692 17.4529 15.2378 17.5365 15.2783 17.6343C15.3188 17.732 15.3294 17.8396 15.3087 17.9434C15.2881 18.0472 15.2371 18.1425 15.1623 18.2173C15.0875 18.2921 14.9922 18.3431 14.8884 18.3637C14.7846 18.3844 14.677 18.3738 14.5793 18.3333C14.4815 18.2928 14.3979 18.2242 14.3391 18.1362C14.2804 18.0483 14.249 17.9448 14.249 17.839C14.249 17.6971 14.3054 17.561 14.4057 17.4607C14.506 17.3604 14.6421 17.304 14.784 17.304Z" fill="black"/>
<path d="M19.325 17.304C19.4308 17.304 19.5343 17.3354 19.6222 17.3941C19.7102 17.4529 19.7788 17.5365 19.8193 17.6343C19.8598 17.732 19.8704 17.8396 19.8497 17.9434C19.8291 18.0472 19.7781 18.1425 19.7033 18.2173C19.6285 18.2921 19.5332 18.3431 19.4294 18.3637C19.3256 18.3844 19.218 18.3738 19.1203 18.3333C19.0225 18.2928 18.9389 18.2242 18.8801 18.1362C18.8214 18.0483 18.79 17.9448 18.79 17.839C18.79 17.6971 18.8464 17.561 18.9467 17.4607C19.047 17.3604 19.1831 17.304 19.325 17.304Z" fill="black"/>
<path d="M21.465 17.304C21.5708 17.304 21.6742 17.3354 21.7622 17.3941C21.8502 17.4529 21.9188 17.5365 21.9593 17.6343C21.9998 17.732 22.0103 17.8396 21.9897 17.9434C21.969 18.0472 21.9182 18.1425 21.8433 18.2173C21.7685 18.2921 21.6731 18.3431 21.5693 18.3637C21.4656 18.3844 21.358 18.3738 21.2603 18.3333C21.1625 18.2928 21.0789 18.2242 21.0201 18.1362C20.9614 18.0483 20.93 17.9448 20.93 17.839C20.93 17.6971 20.9863 17.561 21.0867 17.4607C21.187 17.3604 21.3231 17.304 21.465 17.304Z" fill="black"/>
<path d="M2.535 18.374C2.64081 18.374 2.74425 18.4054 2.83223 18.4641C2.92021 18.5229 2.98878 18.6065 3.02928 18.7043C3.06977 18.802 3.08036 18.9096 3.05972 19.0134C3.03908 19.1172 2.98812 19.2125 2.9133 19.2873C2.83848 19.3621 2.74315 19.4131 2.63937 19.4337C2.53559 19.4544 2.42802 19.4438 2.33026 19.4033C2.23251 19.3628 2.14895 19.2942 2.09016 19.2062C2.03138 19.1183 2 19.0148 2 18.909C2 18.7671 2.05637 18.631 2.1567 18.5307C2.25703 18.4304 2.39311 18.374 2.535 18.374Z" fill="black"/>
<path d="M9.216 18.374C9.32182 18.374 9.42525 18.4054 9.51323 18.4641C9.60121 18.5229 9.66979 18.6065 9.71028 18.7043C9.75077 18.802 9.76137 18.9096 9.74072 19.0134C9.72008 19.1172 9.66912 19.2125 9.5943 19.2873C9.51948 19.3621 9.42415 19.4131 9.32037 19.4337C9.21659 19.4544 9.10902 19.4438 9.01126 19.4033C8.9135 19.3628 8.82995 19.2942 8.77116 19.2062C8.71238 19.1183 8.681 19.0148 8.681 18.909C8.681 18.7671 8.73736 18.631 8.83769 18.5307C8.93802 18.4304 9.07411 18.374 9.216 18.374Z" fill="black"/>
<path d="M13.67 18.374C13.7758 18.374 13.8793 18.4054 13.9672 18.4641C14.0552 18.5229 14.1238 18.6065 14.1643 18.7043C14.2048 18.802 14.2154 18.9096 14.1947 19.0134C14.1741 19.1172 14.1231 19.2125 14.0483 19.2873C13.9735 19.3621 13.8782 19.4131 13.7744 19.4337C13.6706 19.4544 13.563 19.4438 13.4653 19.4033C13.3675 19.3628 13.2839 19.2942 13.2251 19.2062C13.1664 19.1183 13.135 19.0148 13.135 18.909C13.135 18.7671 13.1914 18.631 13.2917 18.5307C13.392 18.4304 13.5281 18.374 13.67 18.374Z" fill="black"/>
<path d="M15.897 18.374C16.0028 18.374 16.1063 18.4054 16.1942 18.4641C16.2822 18.5229 16.3508 18.6065 16.3913 18.7043C16.4318 18.802 16.4424 18.9096 16.4217 19.0134C16.4011 19.1172 16.3501 19.2125 16.2753 19.2873C16.2005 19.3621 16.1052 19.4131 16.0014 19.4337C15.8976 19.4544 15.79 19.4438 15.6923 19.4033C15.5945 19.3628 15.5109 19.2942 15.4521 19.2062C15.3934 19.1183 15.362 19.0148 15.362 18.909C15.362 18.7671 15.4184 18.631 15.5187 18.5307C15.619 18.4304 15.7551 18.374 15.897 18.374Z" fill="black"/>
<path d="M18.124 18.374C18.2298 18.374 18.3333 18.4054 18.4212 18.4641C18.5092 18.5229 18.5778 18.6065 18.6183 18.7043C18.6588 18.802 18.6694 18.9096 18.6487 19.0134C18.6281 19.1172 18.5771 19.2125 18.5023 19.2873C18.4275 19.3621 18.3322 19.4131 18.2284 19.4337C18.1246 19.4544 18.017 19.4438 17.9193 19.4033C17.8215 19.3628 17.7379 19.2942 17.6791 19.2062C17.6204 19.1183 17.589 19.0148 17.589 18.909C17.589 18.7671 17.6454 18.631 17.7457 18.5307C17.846 18.4304 17.9821 18.374 18.124 18.374Z" fill="black"/>
<path d="M20.395 18.374C20.5008 18.374 20.6043 18.4054 20.6922 18.4641C20.7802 18.5229 20.8488 18.6065 20.8893 18.7043C20.9298 18.802 20.9404 18.9096 20.9197 19.0134C20.8991 19.1172 20.8481 19.2125 20.7733 19.2873C20.6985 19.3621 20.6032 19.4131 20.4994 19.4337C20.3956 19.4544 20.288 19.4438 20.1903 19.4033C20.0925 19.3628 20.0089 19.2942 19.9501 19.2062C19.8914 19.1183 19.86 19.0148 19.86 18.909C19.86 18.7671 19.9164 18.631 20.0167 18.5307C20.117 18.4304 20.2531 18.374 20.395 18.374Z" fill="black"/>
</g>
</g>
<defs>
<clipPath id="clip0_3352_12509">
<rect width="24" height="24" fill="white"/>
</clipPath>
</defs>
</svg>
