<svg width="24" height="24" viewBox="0 0 24 24" fill="none" xmlns="http://www.w3.org/2000/svg">
<g clip-path="url(#clip0_3498_669)">
<mask id="mask0_3498_669" style="mask-type:alpha" maskUnits="userSpaceOnUse" x="0" y="0" width="24" height="24">
<rect width="24" height="24" fill="#D9D9D9"/>
</mask>
<g mask="url(#mask0_3498_669)">
<path d="M5.24557 9.74432C5.24557 9.47995 5.03125 9.26562 4.76688 9.26562C4.5025 9.26562 4.28818 9.47995 4.28818 9.74432V14.5313C4.28818 14.7957 4.5025 15.01 4.76688 15.01C5.03125 15.01 5.24557 14.7957 5.24557 14.5313V9.74432Z" fill="black"/>
<path d="M7.16034 9.74432C7.16034 9.47995 6.94602 9.26562 6.68164 9.26562C6.41726 9.26562 6.20294 9.47995 6.20294 9.74432V14.5313C6.20294 14.7957 6.41726 15.01 6.68164 15.01C6.94602 15.01 7.16034 14.7957 7.16034 14.5313V9.74432Z" fill="black"/>
<path d="M10.0325 10.223C10.0325 9.69427 9.60389 9.26562 9.07513 9.26562C8.54638 9.26562 8.11774 9.69427 8.11774 10.223V14.0526C8.11774 14.5814 8.54638 15.01 9.07513 15.01C9.60389 15.01 10.0325 14.5814 10.0325 14.0526V10.223Z" fill="black"/>
<path d="M11.9473 9.74432C11.9473 9.47995 11.733 9.26562 11.4686 9.26562C11.2042 9.26562 10.9899 9.47995 10.9899 9.74432V14.5313C10.9899 14.7957 11.2042 15.01 11.4686 15.01C11.733 15.01 11.9473 14.7957 11.9473 14.5313V9.74432Z" fill="black"/>
<path d="M19.6065 9.74432C19.6065 9.47995 19.3922 9.26562 19.1278 9.26562C18.8634 9.26562 18.6491 9.47995 18.6491 9.74432V14.5313C18.6491 14.7957 18.8634 15.01 19.1278 15.01C19.3922 15.01 19.6065 14.7957 19.6065 14.5313V9.74432Z" fill="black"/>
<path d="M14.8195 10.223C14.8195 9.69427 14.3909 9.26562 13.8621 9.26562C13.3334 9.26562 12.9047 9.69427 12.9047 10.223V14.0526C12.9047 14.5814 13.3334 15.01 13.8621 15.01C14.3909 15.01 14.8195 14.5814 14.8195 14.0526V10.223Z" fill="black"/>
<path d="M17.6917 10.223C17.6917 9.69427 17.2631 9.26562 16.7343 9.26562C16.2056 9.26562 15.7769 9.69427 15.7769 10.223V14.0526C15.7769 14.5814 16.2056 15.01 16.7343 15.01C17.2631 15.01 17.6917 14.5814 17.6917 14.0526V10.223Z" fill="black"/>
<path fillRule="evenodd" clipRule="evenodd" d="M6.30828 4.9574C4.45764 4.9574 2.9574 6.45764 2.9574 8.30828V16.0345C2.9574 17.8851 4.45764 19.3854 6.30828 19.3854H17.6917C19.5424 19.3854 21.0426 17.8851 21.0426 16.0345V8.30828C21.0426 6.45764 19.5424 4.9574 17.6917 4.9574H6.30828ZM2 8.30828C2 5.92888 3.92888 4 6.30828 4H17.6917C20.0711 4 22 5.92888 22 8.30828V16.0345C22 18.4139 20.0711 20.3427 17.6917 20.3427H6.30828C3.92888 20.3427 2 18.4139 2 16.0345V8.30828Z" fill="black"/>
</g>
</g>
<defs>
<clipPath id="clip0_3498_669">
<rect width="24" height="24" fill="white"/>
</clipPath>
</defs>
</svg>
