<svg width="24" height="24" viewBox="0 0 24 24" fill="none" xmlns="http://www.w3.org/2000/svg">
<path d="M6.92001 6.5C6.92001 6.22386 6.69616 6 6.42001 6C6.14387 6 5.92001 6.22386 5.92001 6.5V17.5C5.92001 17.7761 6.14387 18 6.42001 18C6.69616 18 6.92001 17.7761 6.92001 17.5V6.5Z" fill="black"/>
<path d="M8.92001 6.5C8.92001 6.22386 8.69616 6 8.42001 6C8.14387 6 7.92001 6.22386 7.92001 6.5V17.5C7.92001 17.7761 8.14387 18 8.42001 18C8.69616 18 8.92001 17.7761 8.92001 17.5V6.5Z" fill="black"/>
<path d="M11 6.5C11 6.22386 10.7761 6 10.5 6C10.2239 6 10 6.22386 10 6.5V17.5C10 17.7761 10.2239 18 10.5 18C10.7761 18 11 17.7761 11 17.5V6.5Z" fill="black"/>
<path d="M12 6.5C12 6.22386 11.7761 6 11.5 6C11.2239 6 11 6.22386 11 6.5V8.5C11 8.77614 11.2239 9 11.5 9C11.7761 9 12 8.77614 12 8.5V6.5Z" fill="black"/>
<path d="M12 10.5C12 10.2239 11.7761 10 11.5 10C11.2239 10 11 10.2239 11 10.5V11.5C11 11.7761 11.2239 12 11.5 12C11.7761 12 12 11.7761 12 11.5V10.5Z" fill="black"/>
<path d="M15 6.5C15 6.22386 14.7761 6 14.5 6C14.2239 6 14 6.22386 14 6.5V8.5C14 8.77614 14.2239 9 14.5 9C14.7761 9 15 8.77614 15 8.5V6.5Z" fill="black"/>
<path d="M15 11.5C15 11.2239 14.7761 11 14.5 11C14.2239 11 14 11.2239 14 11.5V12.5C14 12.7761 14.2239 13 14.5 13C14.7761 13 15 12.7761 15 12.5V11.5Z" fill="black"/>
<path d="M12 16.5C12 16.2239 11.7761 16 11.5 16C11.2239 16 11 16.2239 11 16.5V17.5C11 17.7761 11.2239 18 11.5 18C11.7761 18 12 17.7761 12 17.5V16.5Z" fill="black"/>
<path d="M14.5 16H13.5C13.2239 16 13 16.2239 13 16.5V17.5C13 17.7761 13.2239 18 13.5 18H14.5C14.7761 18 15 17.7761 15 17.5V16.5C15 16.2239 14.7761 16 14.5 16Z" fill="black"/>
<path d="M12.5 13H11.5C11.2239 13 11 13.2239 11 13.5V14.5C11 14.7761 11.2239 15 11.5 15H12.5C12.7761 15 13 14.7761 13 14.5V13.5C13 13.2239 12.7761 13 12.5 13Z" fill="black"/>
<path d="M13.5 6H12.5C12.2239 6 12 6.22386 12 6.5V7.5C12 7.77614 12.2239 8 12.5 8H13.5C13.7761 8 14 7.77614 14 7.5V6.5C14 6.22386 13.7761 6 13.5 6Z" fill="black"/>
<path d="M14.5 9H13.5C13.2239 9 13 9.22386 13 9.5V10.5C13 10.7761 13.2239 11 13.5 11H14.5C14.7761 11 15 10.7761 15 10.5V9.5C15 9.22386 14.7761 9 14.5 9Z" fill="black"/>
<path d="M13 15.5C13 15.2239 12.7761 15 12.5 15C12.2239 15 12 15.2239 12 15.5V16.5C12 16.7761 12.2239 17 12.5 17C12.7761 17 13 16.7761 13 16.5V15.5Z" fill="black"/>
<path d="M13 9.5C13 9.22386 12.7761 9 12.5 9C12.2239 9 12 9.22386 12 9.5V11.5C12 11.7761 12.2239 12 12.5 12C12.7761 12 13 11.7761 13 11.5V9.5Z" fill="black"/>
<path d="M14 12.9099C14 12.6338 13.7761 12.4099 13.5 12.4099C13.2239 12.4099 13 12.6338 13 12.9099V13.9099C13 14.1861 13.2239 14.4099 13.5 14.4099C13.7761 14.4099 14 14.1861 14 13.9099V12.9099Z" fill="black"/>
<path d="M4.5 6H2.5C2.22386 6 2 6.22386 2 6.5V17.5C2 17.7761 2.22386 18 2.5 18H4.5C4.77614 18 5 17.7761 5 17.5V6.5C5 6.22386 4.77614 6 4.5 6Z" fill="black"/>
<path d="M20 6.5C20 6.22386 19.7761 6 19.5 6C19.2239 6 19 6.22386 19 6.5V17.5C19 17.7761 19.2239 18 19.5 18C19.7761 18 20 17.7761 20 17.5V6.5Z" fill="black"/>
<path d="M22 6.5C22 6.22386 21.7761 6 21.5 6C21.2239 6 21 6.22386 21 6.5V17.5C21 17.7761 21.2239 18 21.5 18C21.7761 18 22 17.7761 22 17.5V6.5Z" fill="black"/>
<path d="M17.5 6H16.5C16.2239 6 16 6.22386 16 6.5V17.5C16 17.7761 16.2239 18 16.5 18H17.5C17.7761 18 18 17.7761 18 17.5V6.5C18 6.22386 17.7761 6 17.5 6Z" fill="black"/>
</svg>
