<svg width="24" height="24" viewBox="0 0 24 24" fill="none" xmlns="http://www.w3.org/2000/svg">
<g clip-path="url(#clip0_3498_798)">
<mask id="mask0_3498_798" style="mask-type:alpha" maskUnits="userSpaceOnUse" x="0" y="0" width="24" height="24">
<rect width="24" height="24" fill="#D9D9D9"/>
</mask>
<g mask="url(#mask0_3498_798)">
<path fillRule="evenodd" clipRule="evenodd" d="M2 4.5C2 4.22386 2.22386 4 2.5 4H2.53C3.35614 4 4.03 4.67386 4.03 5.5V14.44C4.03 15.2639 4.70614 15.94 5.53 15.94H20.52C20.7961 15.94 21.02 16.1639 21.02 16.44C21.02 16.7161 20.7961 16.94 20.52 16.94H5.53C4.15386 16.94 3.03 15.8161 3.03 14.44V5.5C3.03 5.22614 2.80386 5 2.53 5H2.5C2.22386 5 2 4.77614 2 4.5Z" fill="black"/>
<path d="M6.51001 16.96C7.06001 16.96 7.51001 17.41 7.51001 17.96C7.51001 18.51 7.06001 18.96 6.51001 18.96C5.96001 18.96 5.51001 18.51 5.51001 17.96C5.51001 17.41 5.96001 16.96 6.51001 16.96ZM6.51001 15.96C5.41001 15.96 4.51001 16.86 4.51001 17.96C4.51001 19.06 5.41001 19.96 6.51001 19.96C7.61001 19.96 8.51001 19.06 8.51001 17.96C8.51001 16.86 7.61001 15.96 6.51001 15.96Z" fill="black"/>
<path d="M20.51 16.96C21.06 16.96 21.51 17.41 21.51 17.96C21.51 18.51 21.06 18.96 20.51 18.96C19.96 18.96 19.51 18.51 19.51 17.96C19.51 17.41 19.96 16.96 20.51 16.96ZM20.51 15.96C19.41 15.96 18.51 16.86 18.51 17.96C18.51 19.06 19.41 19.96 20.51 19.96C21.61 19.96 22.51 19.06 22.51 17.96C22.51 16.86 21.61 15.96 20.51 15.96Z" fill="black"/>
<path d="M6.51001 8.45996C6.51001 8.18382 6.28615 7.95996 6.01001 7.95996C5.73387 7.95996 5.51001 8.18382 5.51001 8.45996V13.46C5.51001 13.7361 5.73387 13.96 6.01001 13.96C6.28615 13.96 6.51001 13.7361 6.51001 13.46V8.45996Z" fill="black"/>
<path d="M8.51001 8.45996C8.51001 8.18382 8.28615 7.95996 8.01001 7.95996C7.73387 7.95996 7.51001 8.18382 7.51001 8.45996V13.46C7.51001 13.7361 7.73387 13.96 8.01001 13.96C8.28615 13.96 8.51001 13.7361 8.51001 13.46V8.45996Z" fill="black"/>
<path d="M11.51 8.95996C11.51 8.40768 11.0623 7.95996 10.51 7.95996C9.95772 7.95996 9.51001 8.40768 9.51001 8.95996V12.96C9.51001 13.5122 9.95772 13.96 10.51 13.96C11.0623 13.96 11.51 13.5122 11.51 12.96V8.95996Z" fill="black"/>
<path d="M13.51 8.45996C13.51 8.18382 13.2862 7.95996 13.01 7.95996C12.7339 7.95996 12.51 8.18382 12.51 8.45996V13.46C12.51 13.7361 12.7339 13.96 13.01 13.96C13.2862 13.96 13.51 13.7361 13.51 13.46V8.45996Z" fill="black"/>
<path d="M21.51 8.45996C21.51 8.18382 21.2862 7.95996 21.01 7.95996C20.7339 7.95996 20.51 8.18382 20.51 8.45996V13.46C20.51 13.7361 20.7339 13.96 21.01 13.96C21.2862 13.96 21.51 13.7361 21.51 13.46V8.45996Z" fill="black"/>
<path d="M16.51 8.95996C16.51 8.40768 16.0623 7.95996 15.51 7.95996C14.9577 7.95996 14.51 8.40768 14.51 8.95996V12.96C14.51 13.5122 14.9577 13.96 15.51 13.96C16.0623 13.96 16.51 13.5122 16.51 12.96V8.95996Z" fill="black"/>
<path d="M19.51 8.95996C19.51 8.40768 19.0623 7.95996 18.51 7.95996C17.9577 7.95996 17.51 8.40768 17.51 8.95996V12.96C17.51 13.5122 17.9577 13.96 18.51 13.96C19.0623 13.96 19.51 13.5122 19.51 12.96V8.95996Z" fill="black"/>
</g>
</g>
<defs>
<clipPath id="clip0_3498_798">
<rect width="24" height="24" fill="white"/>
</clipPath>
</defs>
</svg>
