<svg width="24" height="24" viewBox="0 0 24 24" fill="none" xmlns="http://www.w3.org/2000/svg">
<g clip-path="url(#clip0_3498_63)">
<mask id="mask0_3498_63" style="mask-type:alpha" maskUnits="userSpaceOnUse" x="0" y="0" width="24" height="24">
<rect width="24" height="24" fill="#D9D9D9"/>
</mask>
<g mask="url(#mask0_3498_63)">
<path d="M10.04 5.08V9.44L11.64 8.25L15.81 5.15V9.43L17.41 8.24L21.51 5.19V18.7H2V9.74L10.04 5.08ZM10.14 4C9.99 4 9.84 4.04 9.69 4.12L1.45 8.91C1.17 9.07 1 9.37 1 9.68V18.81C1 19.3 1.4 19.71 1.9 19.71H21.61C22.1 19.71 22.51 19.31 22.51 18.81V4.99C22.51 4.46 22.07 4.09 21.61 4.09C21.43 4.09 21.24 4.15 21.08 4.27L16.81 7.45V4.94C16.81 4.41 16.37 4.04 15.91 4.04C15.73 4.04 15.54 4.1 15.38 4.22L11.05 7.44V4.9C11.05 4.38 10.62 4 10.15 4H10.14Z" fill="black"/>
<path d="M4.45999 10.8799H4.37999C4.13146 10.8799 3.92999 11.0814 3.92999 11.3299V16.2899C3.92999 16.5384 4.13146 16.7399 4.37999 16.7399H4.45999C4.70852 16.7399 4.90999 16.5384 4.90999 16.2899V11.3299C4.90999 11.0814 4.70852 10.8799 4.45999 10.8799Z" fill="black"/>
<path d="M6.42001 10.8799H6.34001C6.09149 10.8799 5.89001 11.0814 5.89001 11.3299V16.2899C5.89001 16.5384 6.09149 16.7399 6.34001 16.7399H6.42001C6.66854 16.7399 6.87001 16.5384 6.87001 16.2899V11.3299C6.87001 11.0814 6.66854 10.8799 6.42001 10.8799Z" fill="black"/>
<path d="M8.88003 10.8799H8.75003C8.24745 10.8799 7.84003 11.2873 7.84003 11.7899V15.8299C7.84003 16.3325 8.24745 16.7399 8.75003 16.7399H8.88003C9.38261 16.7399 9.79003 16.3325 9.79003 15.8299V11.7899C9.79003 11.2873 9.38261 10.8799 8.88003 10.8799Z" fill="black"/>
<path d="M11.3 10.8799H11.22C10.9715 10.8799 10.77 11.0814 10.77 11.3299V16.2899C10.77 16.5384 10.9715 16.7399 11.22 16.7399H11.3C11.5485 16.7399 11.75 16.5384 11.75 16.2899V11.3299C11.75 11.0814 11.5485 10.8799 11.3 10.8799Z" fill="black"/>
<path d="M19.12 10.8799H19.04C18.7915 10.8799 18.59 11.0814 18.59 11.3299V16.2899C18.59 16.5384 18.7915 16.7399 19.04 16.7399H19.12C19.3686 16.7399 19.57 16.5384 19.57 16.2899V11.3299C19.57 11.0814 19.3686 10.8799 19.12 10.8799Z" fill="black"/>
<path d="M13.77 10.8799H13.64C13.1374 10.8799 12.73 11.2873 12.73 11.7899V15.8299C12.73 16.3325 13.1374 16.7399 13.64 16.7399H13.77C14.2726 16.7399 14.68 16.3325 14.68 15.8299V11.7899C14.68 11.2873 14.2726 10.8799 13.77 10.8799Z" fill="black"/>
<path d="M16.7 10.8799H16.57C16.0674 10.8799 15.66 11.2873 15.66 11.7899V15.8299C15.66 16.3325 16.0674 16.7399 16.57 16.7399H16.7C17.2026 16.7399 17.61 16.3325 17.61 15.8299V11.7899C17.61 11.2873 17.2026 10.8799 16.7 10.8799Z" fill="black"/>
</g>
</g>
<defs>
<clipPath id="clip0_3498_63">
<rect width="24" height="24" fill="white"/>
</clipPath>
</defs>
</svg>
