<svg width="24" height="24" viewBox="0 0 24 24" fill="none" xmlns="http://www.w3.org/2000/svg">
<path d="M9 4C9.55 4 10 4.45 10 5V9C10 9.55 9.55 10 9 10H5C4.45 10 4 9.55 4 9V5C4 4.45 4.45 4 5 4H9ZM9 3H5C3.9 3 3 3.9 3 5V9C3 10.1 3.9 11 5 11H9C10.1 11 11 10.1 11 9V5C11 3.9 10.1 3 9 3Z" fill="black"/>
<path d="M8 6V8H6V6H8ZM8.5 5H5.5C5.22 5 5 5.22 5 5.5V8.5C5 8.78 5.22 9 5.5 9H8.5C8.78 9 9 8.78 9 8.5V5.5C9 5.22 8.78 5 8.5 5Z" fill="black"/>
<path d="M9 14C9.55 14 10 14.45 10 15V19C10 19.55 9.55 20 9 20H5C4.45 20 4 19.55 4 19V15C4 14.45 4.45 14 5 14H9ZM9 13H5C3.9 13 3 13.9 3 15V19C3 20.1 3.9 21 5 21H9C10.1 21 11 20.1 11 19V15C11 13.9 10.1 13 9 13Z" fill="black"/>
<path d="M8 16V18H6V16H8ZM8.5 15H5.5C5.22 15 5 15.22 5 15.5V18.5C5 18.78 5.22 19 5.5 19H8.5C8.78 19 9 18.78 9 18.5V15.5C9 15.22 8.78 15 8.5 15Z" fill="black"/>
<path d="M19 4C19.55 4 20 4.45 20 5V9C20 9.55 19.55 10 19 10H15C14.45 10 14 9.55 14 9V5C14 4.45 14.45 4 15 4H19ZM19 3H15C13.9 3 13 3.9 13 5V9C13 10.1 13.9 11 15 11H19C20.1 11 21 10.1 21 9V5C21 3.9 20.1 3 19 3Z" fill="black"/>
<path d="M18 6V8H16V6H18ZM18.5 5H15.5C15.22 5 15 5.22 15 5.5V8.5C15 8.78 15.22 9 15.5 9H18.5C18.78 9 19 8.78 19 8.5V5.5C19 5.22 18.78 5 18.5 5Z" fill="black"/>
<path fillRule="evenodd" clipRule="evenodd" d="M20 15.5C20.2761 15.5 20.5 15.7239 20.5 16V19.25C20.5 19.9361 19.9361 20.5 19.25 20.5H17C16.7239 20.5 16.5 20.2761 16.5 20C16.5 19.7239 16.7239 19.5 17 19.5H19.25C19.3839 19.5 19.5 19.3839 19.5 19.25V16C19.5 15.7239 19.7239 15.5 20 15.5Z" fill="black"/>
<path fillRule="evenodd" clipRule="evenodd" d="M13.5 16.75C13.5 16.0639 14.0639 15.5 14.75 15.5H17C17.2761 15.5 17.5 15.7239 17.5 16C17.5 16.2761 17.2761 16.5 17 16.5H14.75C14.6161 16.5 14.5 16.6161 14.5 16.75V20C14.5 20.2761 14.2761 20.5 14 20.5C13.7239 20.5 13.5 20.2761 13.5 20V16.75Z" fill="black"/>
<path fillRule="evenodd" clipRule="evenodd" d="M13.5 14C13.5 13.7239 13.7239 13.5 14 13.5H15C15.2761 13.5 15.5 13.7239 15.5 14C15.5 14.2761 15.2761 14.5 15 14.5H14C13.7239 14.5 13.5 14.2761 13.5 14Z" fill="black"/>
<path fillRule="evenodd" clipRule="evenodd" d="M16.5 14C16.5 13.7239 16.7239 13.5 17 13.5H20C20.2761 13.5 20.5 13.7239 20.5 14C20.5 14.2761 20.2761 14.5 20 14.5H17C16.7239 14.5 16.5 14.2761 16.5 14Z" fill="black"/>
<path fillRule="evenodd" clipRule="evenodd" d="M15.5 18C15.5 17.7239 15.7239 17.5 16 17.5H18C18.2761 17.5 18.5 17.7239 18.5 18C18.5 18.2761 18.2761 18.5 18 18.5H16C15.7239 18.5 15.5 18.2761 15.5 18Z" fill="black"/>
</svg>
