<svg width="24" height="24" viewBox="0 0 24 24" fill="none" xmlns="http://www.w3.org/2000/svg">
<path d="M20.471 21H4.74C4.27869 20.9995 3.83642 20.816 3.51022 20.4898C3.18402 20.1636 3.00053 19.7213 3 19.26V3.52901C3 3.38858 3.05579 3.2539 3.15509 3.1546C3.25439 3.0553 3.38907 2.99951 3.5295 2.99951C3.66993 2.99951 3.80461 3.0553 3.90391 3.1546C4.00321 3.2539 4.059 3.38858 4.059 3.52901V19.26C4.05926 19.4405 4.1311 19.6136 4.25875 19.7413C4.38641 19.8689 4.55947 19.9407 4.74 19.941H20.471C20.5405 19.941 20.6094 19.9547 20.6736 19.9813C20.7379 20.0079 20.7962 20.0469 20.8454 20.0961C20.8946 20.1453 20.9336 20.2036 20.9602 20.2679C20.9868 20.3321 21.0005 20.401 21.0005 20.4705C21.0005 20.54 20.9868 20.6089 20.9602 20.6731C20.9336 20.7374 20.8946 20.7958 20.8454 20.8449C20.7962 20.8941 20.7379 20.9331 20.6736 20.9597C20.6094 20.9863 20.5405 21 20.471 21Z" fill="#111111"/>
<path d="M7.76501 8.29386H3.52901C3.38858 8.29386 3.2539 8.23808 3.1546 8.13878C3.0553 8.03948 2.99951 7.9048 2.99951 7.76436C2.99951 7.62393 3.0553 7.48925 3.1546 7.38995C3.2539 7.29065 3.38858 7.23486 3.52901 7.23486H7.76501C7.90544 7.23486 8.04012 7.29065 8.13942 7.38995C8.23872 7.48925 8.29451 7.62393 8.29451 7.76436C8.29451 7.9048 8.23872 8.03948 8.13942 8.13878C8.04012 8.23808 7.90544 8.29386 7.76501 8.29386Z" fill="#111111"/>
<path d="M8.82295 6.17601C8.68265 6.17601 8.54809 6.12028 8.44889 6.02107C8.34968 5.92186 8.29395 5.78731 8.29395 5.64701V3.52901C8.29395 3.38858 8.34973 3.2539 8.44903 3.1546C8.54833 3.0553 8.68301 2.99951 8.82345 2.99951C8.96388 2.99951 9.09856 3.0553 9.19786 3.1546C9.29716 3.2539 9.35295 3.38858 9.35295 3.52901V5.64701C9.35295 5.71657 9.33923 5.78544 9.31258 5.84968C9.28593 5.91393 9.24688 5.97229 9.19765 6.02143C9.14842 6.07056 9.08999 6.10951 9.02569 6.13603C8.9614 6.16256 8.8925 6.17614 8.82295 6.17601Z" fill="#111111"/>
<path d="M8.82295 11.471C8.75339 11.471 8.68452 11.4573 8.62028 11.4307C8.55603 11.404 8.49767 11.365 8.44853 11.3157C8.3994 11.2665 8.36045 11.2081 8.33393 11.1438C8.3074 11.0795 8.29381 11.0106 8.29395 10.941V9.88204C8.29395 9.74161 8.34973 9.60693 8.44903 9.50763C8.54833 9.40833 8.68301 9.35254 8.82345 9.35254C8.96388 9.35254 9.09856 9.40833 9.19786 9.50763C9.29716 9.60693 9.35295 9.74161 9.35295 9.88204V10.941C9.35308 11.0107 9.33946 11.0797 9.31287 11.144C9.28628 11.2084 9.24725 11.2669 9.19801 11.3161C9.14877 11.3653 9.09029 11.4044 9.02592 11.431C8.96156 11.4576 8.89258 11.4712 8.82295 11.471Z" fill="#111111"/>
<path d="M16.2351 6.17601C16.0948 6.17601 15.9602 6.12028 15.861 6.02107C15.7618 5.92186 15.7061 5.78731 15.7061 5.64701V3.52901C15.7061 3.38858 15.7618 3.2539 15.8611 3.1546C15.9604 3.0553 16.0951 2.99951 16.2356 2.99951C16.376 2.99951 16.5107 3.0553 16.61 3.1546C16.7093 3.2539 16.7651 3.38858 16.7651 3.52901V5.64701C16.7651 5.71657 16.7513 5.78544 16.7247 5.84968C16.698 5.91393 16.659 5.97229 16.6098 6.02143C16.5605 6.07056 16.5021 6.10951 16.4378 6.13603C16.3735 6.16256 16.3046 6.17614 16.2351 6.17601Z" fill="#111111"/>
<path d="M20.4711 12.529H16.7651C16.4844 12.5288 16.2154 12.4173 16.0169 12.2189C15.8184 12.0206 15.7066 11.7516 15.7061 11.471V9.88204C15.7061 9.74161 15.7618 9.60693 15.8611 9.50763C15.9604 9.40833 16.0951 9.35254 16.2356 9.35254C16.376 9.35254 16.5107 9.40833 16.61 9.50763C16.7093 9.60693 16.7651 9.74161 16.7651 9.88204V11.471H20.4711C20.6115 11.471 20.7462 11.5268 20.8455 11.6261C20.9448 11.7254 21.0006 11.8601 21.0006 12.0005C21.0006 12.141 20.9448 12.2757 20.8455 12.375C20.7462 12.4743 20.6115 12.53 20.4711 12.53V12.529Z" fill="#111111"/>
<path d="M14.1179 8.29401H12.5299C12.2492 8.29375 11.98 8.18209 11.7814 7.98355C11.5829 7.785 11.4712 7.5158 11.4709 7.23501V3.52901C11.4709 3.45948 11.4846 3.39062 11.5113 3.32638C11.5379 3.26214 11.5769 3.20377 11.626 3.1546C11.6752 3.10543 11.7336 3.06643 11.7978 3.03982C11.8621 3.01321 11.9309 2.99951 12.0004 2.99951C12.07 2.99951 12.1388 3.01321 12.2031 3.03982C12.2673 3.06643 12.3257 3.10543 12.3749 3.1546C12.424 3.20377 12.463 3.26214 12.4896 3.32638C12.5163 3.39062 12.5299 3.45948 12.5299 3.52901V7.23501H14.1179C14.1875 7.23501 14.2563 7.24871 14.3206 7.27532C14.3848 7.30193 14.4432 7.34093 14.4924 7.3901C14.5415 7.43927 14.5805 7.49764 14.6071 7.56188C14.6338 7.62612 14.6474 7.69498 14.6474 7.76451C14.6474 7.83405 14.6338 7.9029 14.6071 7.96714C14.5805 8.03138 14.5415 8.08976 14.4924 8.13893C14.4432 8.18809 14.3848 8.2271 14.3206 8.25371C14.2563 8.28032 14.1875 8.29401 14.1179 8.29401Z" fill="#111111"/>
<path d="M20.4711 16.7651H16.2351C16.0946 16.7651 15.96 16.7093 15.8607 16.61C15.7614 16.5107 15.7056 16.376 15.7056 16.2356C15.7056 16.0951 15.7614 15.9604 15.8607 15.8611C15.96 15.7618 16.0946 15.7061 16.2351 15.7061H20.4711C20.6115 15.7061 20.7462 15.7618 20.8455 15.8611C20.9448 15.9604 21.0006 16.0951 21.0006 16.2356C21.0006 16.376 20.9448 16.5107 20.8455 16.61C20.7462 16.7093 20.6115 16.7651 20.4711 16.7651Z" fill="#111111"/>
<path d="M14.1169 21.0001C13.9766 21.0001 13.842 20.9444 13.7428 20.8452C13.6436 20.746 13.5879 20.6114 13.5879 20.4711V17.2941C13.5879 17.1537 13.6437 17.019 13.743 16.9197C13.8423 16.8204 13.977 16.7646 14.1174 16.7646C14.2578 16.7646 14.3925 16.8204 14.4918 16.9197C14.5911 17.019 14.6469 17.1537 14.6469 17.2941V20.4711C14.6469 20.5407 14.6332 20.6096 14.6065 20.6738C14.5799 20.7381 14.5408 20.7964 14.4916 20.8456C14.4424 20.8947 14.3839 20.9336 14.3196 20.9602C14.2553 20.9867 14.1864 21.0003 14.1169 21.0001Z" fill="#111111"/>
<path d="M14.118 14.6469H12C11.8595 14.6469 11.7248 14.5911 11.6255 14.4918C11.5262 14.3925 11.4705 14.2578 11.4705 14.1174C11.4705 13.977 11.5262 13.8423 11.6255 13.743C11.7248 13.6437 11.8595 13.5879 12 13.5879H14.118C14.2584 13.5879 14.3931 13.6437 14.4924 13.743C14.5917 13.8423 14.6475 13.977 14.6475 14.1174C14.6475 14.2578 14.5917 14.3925 14.4924 14.4918C14.3931 14.5911 14.2584 14.6469 14.118 14.6469Z" fill="#111111"/>
<path d="M20.471 8.29386H18.353C18.2126 8.29386 18.0779 8.23808 17.9786 8.13878C17.8793 8.03948 17.8235 7.9048 17.8235 7.76436C17.8235 7.62393 17.8793 7.48925 17.9786 7.38995C18.0779 7.29065 18.2126 7.23486 18.353 7.23486H20.471C20.6114 7.23486 20.7461 7.29065 20.8454 7.38995C20.9447 7.48925 21.0005 7.62393 21.0005 7.76436C21.0005 7.9048 20.9447 8.03948 20.8454 8.13878C20.7461 8.23808 20.6114 8.29386 20.471 8.29386Z" fill="#111111"/>
<path d="M8.82295 21.0001C8.68265 21.0001 8.54809 20.9444 8.44889 20.8452C8.34968 20.746 8.29395 20.6114 8.29395 20.4711V17.2941C8.29395 17.1537 8.34973 17.019 8.44903 16.9197C8.54833 16.8204 8.68301 16.7646 8.82345 16.7646C8.96388 16.7646 9.09856 16.8204 9.19786 16.9197C9.29716 17.019 9.35295 17.1537 9.35295 17.2941V20.4711C9.35295 20.5407 9.33923 20.6096 9.31258 20.6738C9.28593 20.7381 9.24688 20.7964 9.19765 20.8456C9.14842 20.8947 9.08999 20.9336 9.02569 20.9602C8.9614 20.9867 8.8925 21.0003 8.82295 21.0001Z" fill="#111111"/>
<path d="M10.941 16.2349H6.70597V11.9999H10.941V16.2349ZM10.941 10.9409H6.70597C6.42511 10.9409 6.15575 11.0525 5.95715 11.2511C5.75855 11.4497 5.64697 11.7191 5.64697 11.9999V16.2349C5.64697 16.5158 5.75855 16.7851 5.95715 16.9837C6.15575 17.1823 6.42511 17.2939 6.70597 17.2939H10.941C11.08 17.2939 11.2178 17.2665 11.3462 17.2133C11.4747 17.1601 11.5915 17.0821 11.6898 16.9837C11.7881 16.8854 11.8661 16.7687 11.9194 16.6402C11.9726 16.5117 12 16.374 12 16.2349V11.9999C12 11.7191 11.8884 11.4497 11.6898 11.2511C11.4912 11.0525 11.2218 10.9409 10.941 10.9409Z" fill="#111111"/>
</svg>
