<svg width="24" height="24" viewBox="0 0 24 24" fill="none" xmlns="http://www.w3.org/2000/svg">
<g clip-path="url(#clip0_3352_12512)">
<mask id="mask0_3352_12512" style="mask-type:alpha" maskUnits="userSpaceOnUse" x="0" y="0" width="24" height="24">
<rect width="24" height="24" fill="#D9D9D9"/>
</mask>
<g mask="url(#mask0_3352_12512)">
<path fillRule="evenodd" clipRule="evenodd" d="M17.079 4.06C16.9174 4.06 16.7595 4.10792 16.6251 4.19769C16.4907 4.28746 16.386 4.41506 16.3242 4.56435C16.2624 4.71363 16.2462 4.87791 16.2777 5.03639C16.3092 5.19487 16.387 5.34045 16.5013 5.45471C16.6156 5.56897 16.7611 5.64678 16.9196 5.6783C17.0781 5.70983 17.2424 5.69365 17.3917 5.63181C17.5409 5.56997 17.6685 5.46526 17.7583 5.3309C17.8481 5.19655 17.896 5.03859 17.896 4.877C17.8949 4.66064 17.8085 4.45345 17.6555 4.30046C17.5026 4.14747 17.2954 4.06105 17.079 4.06ZM17.079 8.147C16.9174 8.147 16.7595 8.19492 16.6251 8.28469C16.4907 8.37446 16.386 8.50206 16.3242 8.65135C16.2624 8.80063 16.2462 8.96491 16.2777 9.12339C16.3092 9.28187 16.387 9.42745 16.5013 9.54171C16.6156 9.65597 16.7611 9.73378 16.9196 9.7653C17.0781 9.79683 17.2424 9.78065 17.3917 9.71881C17.5409 9.65697 17.6685 9.55226 17.7583 9.4179C17.8481 9.28355 17.896 9.12559 17.896 8.964C17.8949 8.74764 17.8085 8.54045 17.6555 8.38746C17.5026 8.23447 17.2954 8.14805 17.079 8.147ZM17.079 10.191C16.9174 10.191 16.7595 10.2389 16.6251 10.3287C16.4907 10.4185 16.386 10.5461 16.3242 10.6953C16.2624 10.8446 16.2462 11.0089 16.2777 11.1674C16.3092 11.3259 16.387 11.4714 16.5013 11.5857C16.6156 11.7 16.7611 11.7778 16.9196 11.8093C17.0781 11.8408 17.2424 11.8246 17.3917 11.7628C17.5409 11.701 17.6685 11.5963 17.7583 11.4619C17.8481 11.3275 17.896 11.1696 17.896 11.008C17.8949 10.7916 17.8085 10.5844 17.6555 10.4315C17.5026 10.2785 17.2954 10.1921 17.079 10.191ZM17.079 12.235C16.9174 12.235 16.7595 12.2829 16.6251 12.3727C16.4907 12.4625 16.386 12.5901 16.3242 12.7393C16.2624 12.8886 16.2462 13.0529 16.2777 13.2114C16.3092 13.3699 16.387 13.5154 16.5013 13.6297C16.6156 13.744 16.7611 13.8218 16.9196 13.8533C17.0781 13.8848 17.2424 13.8686 17.3917 13.8068C17.5409 13.745 17.6685 13.6403 17.7583 13.5059C17.8481 13.3715 17.896 13.2136 17.896 13.052C17.8949 12.8356 17.8085 12.6284 17.6555 12.4755C17.5026 12.3225 17.2954 12.2361 17.079 12.235ZM17.079 16.322C16.9174 16.322 16.7595 16.3699 16.6251 16.4597C16.4907 16.5495 16.386 16.6771 16.3242 16.8263C16.2624 16.9756 16.2462 17.1399 16.2777 17.2984C16.3092 17.4569 16.387 17.6024 16.5013 17.7167C16.6156 17.831 16.7611 17.9088 16.9196 17.9403C17.0781 17.9718 17.2424 17.9556 17.3917 17.8938C17.5409 17.832 17.6685 17.7273 17.7583 17.5929C17.8481 17.4585 17.896 17.3006 17.896 17.139C17.8949 16.9226 17.8085 16.7154 17.6555 16.5625C17.5026 16.4095 17.2954 16.3231 17.079 16.322ZM17.079 18.366C16.9174 18.366 16.7595 18.4139 16.6251 18.5037C16.4907 18.5935 16.386 18.7211 16.3242 18.8703C16.2624 19.0196 16.2462 19.1839 16.2777 19.3424C16.3092 19.5009 16.387 19.6464 16.5013 19.7607C16.6156 19.875 16.7611 19.9528 16.9196 19.9843C17.0781 20.0158 17.2424 19.9996 17.3917 19.9378C17.5409 19.876 17.6685 19.7713 17.7583 19.6369C17.8481 19.5025 17.896 19.3446 17.896 19.183C17.8949 18.9666 17.8085 18.7594 17.6555 18.6065C17.5026 18.4535 17.2954 18.3671 17.079 18.366ZM19.123 7.728C19.2846 7.728 19.4425 7.68008 19.5769 7.59031C19.7113 7.50054 19.816 7.37294 19.8778 7.22365C19.9396 7.07437 19.9558 6.91009 19.9243 6.75161C19.8928 6.59313 19.815 6.44755 19.7007 6.33329C19.5864 6.21903 19.4409 6.14122 19.2824 6.1097C19.1239 6.07817 18.9596 6.09435 18.8103 6.15619C18.6611 6.21803 18.5335 6.32274 18.4437 6.4571C18.3539 6.59145 18.306 6.74941 18.306 6.911C18.3071 7.12736 18.3935 7.33455 18.5465 7.48754C18.6994 7.64053 18.9066 7.72695 19.123 7.728ZM19.123 10.18C18.9614 10.18 18.8035 10.2279 18.6691 10.3177C18.5347 10.4075 18.43 10.5351 18.3682 10.6843C18.3064 10.8336 18.2902 10.9979 18.3217 11.1564C18.3532 11.3149 18.431 11.4604 18.5453 11.5747C18.6596 11.689 18.8051 11.7668 18.9636 11.7983C19.1221 11.8298 19.2864 11.8136 19.4357 11.7518C19.5849 11.69 19.7125 11.5853 19.8023 11.4509C19.8921 11.3165 19.94 11.1586 19.94 10.997C19.9389 10.7806 19.8525 10.5734 19.6995 10.4205C19.5466 10.2675 19.3394 10.1811 19.123 10.18ZM19.123 14.267C18.9614 14.267 18.8035 14.3149 18.6691 14.4047C18.5347 14.4945 18.43 14.6221 18.3682 14.7713C18.3064 14.9206 18.2902 15.0849 18.3217 15.2434C18.3532 15.4019 18.431 15.5474 18.5453 15.6617C18.6596 15.776 18.8051 15.8538 18.9636 15.8853C19.1221 15.9168 19.2864 15.9006 19.4357 15.8388C19.5849 15.777 19.7125 15.6723 19.8023 15.5379C19.8921 15.4035 19.94 15.2456 19.94 15.084C19.9389 14.8676 19.8525 14.6604 19.6995 14.5075C19.5466 14.3545 19.3394 14.2681 19.123 14.267ZM19.123 18.354C18.9614 18.354 18.8035 18.4019 18.6691 18.4917C18.5347 18.5815 18.43 18.7091 18.3682 18.8583C18.3064 19.0076 18.2902 19.1719 18.3217 19.3304C18.3532 19.4889 18.431 19.6344 18.5453 19.7487C18.6596 19.863 18.8051 19.9408 18.9636 19.9723C19.1221 20.0038 19.2864 19.9876 19.4357 19.9258C19.5849 19.864 19.7125 19.7593 19.8023 19.6249C19.8921 19.4905 19.94 19.3326 19.94 19.171C19.9389 18.9546 19.8525 18.7474 19.6995 18.5945C19.5466 18.4415 19.3394 18.3551 19.123 18.354ZM15.036 12.223C14.8744 12.223 14.7165 12.2709 14.5821 12.3607C14.4477 12.4505 14.343 12.5781 14.2812 12.7273C14.2194 12.8766 14.2032 13.0409 14.2347 13.1994C14.2662 13.3579 14.344 13.5034 14.4583 13.6177C14.5726 13.732 14.7181 13.8098 14.8766 13.8413C15.0351 13.8728 15.1994 13.8566 15.3487 13.7948C15.4979 13.733 15.6255 13.6283 15.7153 13.4939C15.8051 13.3595 15.853 13.2016 15.853 13.04C15.8519 12.8236 15.7655 12.6164 15.6125 12.4635C15.4596 12.3105 15.2524 12.2241 15.036 12.223ZM15.036 14.267C14.8744 14.267 14.7165 14.3149 14.5821 14.4047C14.4477 14.4945 14.343 14.6221 14.2812 14.7713C14.2194 14.9206 14.2032 15.0849 14.2347 15.2434C14.2662 15.4019 14.344 15.5474 14.4583 15.6617C14.5726 15.776 14.7181 15.8538 14.8766 15.8853C15.0351 15.9168 15.1994 15.9006 15.3487 15.8388C15.4979 15.777 15.6255 15.6723 15.7153 15.5379C15.8051 15.4035 15.853 15.2456 15.853 15.084C15.8519 14.8676 15.7655 14.6604 15.6125 14.5075C15.4596 14.3545 15.2524 14.2681 15.036 14.267ZM15.036 18.354C14.8744 18.354 14.7165 18.4019 14.5821 18.4917C14.4477 18.5815 14.343 18.7091 14.2812 18.8583C14.2194 19.0076 14.2032 19.1719 14.2347 19.3304C14.2662 19.4889 14.344 19.6344 14.4583 19.7487C14.5726 19.863 14.7181 19.9408 14.8766 19.9723C15.0351 20.0038 15.1994 19.9876 15.3487 19.9258C15.4979 19.864 15.6255 19.7593 15.7153 19.6249C15.8051 19.4905 15.853 19.3326 15.853 19.171C15.8519 18.9546 15.7655 18.7474 15.6125 18.5945C15.4596 18.4415 15.2524 18.3551 15.036 18.354ZM12.99 4.04C12.8284 4.04 12.6705 4.08792 12.5361 4.17769C12.4017 4.26746 12.297 4.39506 12.2352 4.54435C12.1734 4.69363 12.1572 4.85791 12.1887 5.01639C12.2202 5.17487 12.298 5.32045 12.4123 5.43471C12.5266 5.54897 12.6721 5.62678 12.8306 5.6583C12.9891 5.68983 13.1534 5.67365 13.3027 5.61181C13.4519 5.54997 13.5795 5.44526 13.6693 5.3109C13.7591 5.17655 13.807 5.01859 13.807 4.857C13.8059 4.64064 13.7195 4.43345 13.5665 4.28046C13.4136 4.12747 13.2064 4.04105 12.99 4.04ZM15.034 6.084C14.8724 6.084 14.7145 6.13192 14.5801 6.22169C14.4457 6.31146 14.341 6.43906 14.2792 6.58835C14.2174 6.73763 14.2012 6.90191 14.2327 7.06039C14.2642 7.21887 14.342 7.36445 14.4563 7.47871C14.5706 7.59297 14.7161 7.67078 14.8746 7.7023C15.0331 7.73383 15.1974 7.71765 15.3467 7.65581C15.4959 7.59397 15.6235 7.48926 15.7133 7.3549C15.8031 7.22055 15.851 7.06259 15.851 6.901C15.8499 6.68464 15.7635 6.47745 15.6105 6.32446C15.4576 6.17147 15.2504 6.08505 15.034 6.084ZM12.99 10.171C12.8284 10.171 12.6705 10.2189 12.5361 10.3087C12.4017 10.3985 12.297 10.5261 12.2352 10.6753C12.1734 10.8246 12.1572 10.9889 12.1887 11.1474C12.2202 11.3059 12.298 11.4514 12.4123 11.5657C12.5266 11.68 12.6721 11.7578 12.8306 11.7893C12.9891 11.8208 13.1534 11.8046 13.3027 11.7428C13.4519 11.681 13.5795 11.5763 13.6693 11.4419C13.7591 11.3075 13.807 11.1496 13.807 10.988C13.8059 10.7716 13.7195 10.5644 13.5665 10.4115C13.4136 10.2585 13.2064 10.1721 12.99 10.171ZM12.99 14.26C12.8284 14.26 12.6705 14.3079 12.5361 14.3977C12.4017 14.4875 12.297 14.6151 12.2352 14.7643C12.1734 14.9136 12.1572 15.0779 12.1887 15.2364C12.2202 15.3949 12.298 15.5404 12.4123 15.6547C12.5266 15.769 12.6721 15.8468 12.8306 15.8783C12.9891 15.9098 13.1534 15.8936 13.3027 15.8318C13.4519 15.77 13.5795 15.6653 13.6693 15.5309C13.7591 15.3965 13.807 15.2386 13.807 15.077C13.8059 14.8606 13.7195 14.6534 13.5665 14.5005C13.4136 14.3475 13.2064 14.2611 12.99 14.26ZM12.99 16.304C12.8284 16.304 12.6705 16.3519 12.5361 16.4417C12.4017 16.5315 12.297 16.6591 12.2352 16.8083C12.1734 16.9576 12.1572 17.1219 12.1887 17.2804C12.2202 17.4389 12.298 17.5844 12.4123 17.6987C12.5266 17.813 12.6721 17.8908 12.8306 17.9223C12.9891 17.9538 13.1534 17.9376 13.3027 17.8758C13.4519 17.814 13.5795 17.7093 13.6693 17.5749C13.7591 17.4405 13.807 17.2826 13.807 17.121C13.8065 16.9043 13.7203 16.6966 13.5672 16.5432C13.4142 16.3897 13.2067 16.3031 12.99 16.302M12.99 18.346C12.8284 18.346 12.6705 18.3939 12.5361 18.4837C12.4017 18.5735 12.297 18.7011 12.2352 18.8503C12.1734 18.9996 12.1572 19.1639 12.1887 19.3224C12.2202 19.4809 12.298 19.6264 12.4123 19.7407C12.5266 19.855 12.6721 19.9328 12.8306 19.9643C12.9891 19.9958 13.1534 19.9796 13.3027 19.9178C13.4519 19.856 13.5795 19.7513 13.6693 19.6169C13.7591 19.4825 13.807 19.3246 13.807 19.163C13.8062 18.9465 13.7199 18.739 13.5669 18.5858C13.4139 18.4326 13.2065 18.3471 12.99 18.346ZM15.036 8.117C14.8744 8.117 14.7165 8.16492 14.5821 8.25469C14.4477 8.34446 14.343 8.47206 14.2812 8.62135C14.2194 8.77064 14.2032 8.93491 14.2347 9.09339C14.2662 9.25187 14.344 9.39745 14.4583 9.51171C14.5726 9.62597 14.7181 9.70378 14.8766 9.7353C15.0351 9.76683 15.1994 9.75065 15.3487 9.68881C15.4979 9.62697 15.6255 9.52226 15.7153 9.3879C15.8051 9.25355 15.853 9.09559 15.853 8.934C15.8519 8.71764 15.7655 8.51045 15.6125 8.35746C15.4596 8.20447 15.2524 8.11805 15.036 8.117ZM10.948 6.074C10.7864 6.074 10.6285 6.12192 10.4941 6.21169C10.3597 6.30146 10.255 6.42906 10.1932 6.57835C10.1314 6.72763 10.1152 6.89191 10.1467 7.05039C10.1782 7.20887 10.256 7.35445 10.3703 7.46871C10.4846 7.58297 10.6301 7.66078 10.7886 7.6923C10.9471 7.72383 11.1114 7.70765 11.2607 7.64581C11.4099 7.58397 11.5375 7.47926 11.6273 7.3449C11.7171 7.21055 11.765 7.05259 11.765 6.891C11.7639 6.67464 11.6775 6.46745 11.5245 6.31446C11.3716 6.16147 11.1644 6.07505 10.948 6.074ZM10.948 8.118C10.7864 8.118 10.6285 8.16592 10.4941 8.25569C10.3597 8.34546 10.255 8.47306 10.1932 8.62235C10.1314 8.77163 10.1152 8.93591 10.1467 9.09439C10.1782 9.25287 10.256 9.39845 10.3703 9.51271C10.4846 9.62697 10.6301 9.70478 10.7886 9.7363C10.9471 9.76783 11.1114 9.75165 11.2607 9.68981C11.4099 9.62797 11.5375 9.52326 11.6273 9.3889C11.7171 9.25455 11.765 9.09659 11.765 8.935C11.7639 8.71864 11.6775 8.51145 11.5245 8.35846C11.3716 8.20547 11.1644 8.11905 10.948 8.118ZM10.948 12.205C10.7864 12.205 10.6285 12.2529 10.4941 12.3427C10.3597 12.4325 10.255 12.5601 10.1932 12.7093C10.1314 12.8586 10.1152 13.0229 10.1467 13.1814C10.1782 13.3399 10.256 13.4854 10.3703 13.5997C10.4846 13.714 10.6301 13.7918 10.7886 13.8233C10.9471 13.8548 11.1114 13.8386 11.2607 13.7768C11.4099 13.715 11.5375 13.6103 11.6273 13.4759C11.7171 13.3415 11.765 13.1836 11.765 13.022C11.7639 12.8056 11.6775 12.5984 11.5245 12.4455C11.3716 12.2925 11.1644 12.2061 10.948 12.205ZM10.948 16.292C10.7864 16.292 10.6285 16.3399 10.4941 16.4297C10.3597 16.5195 10.255 16.6471 10.1932 16.7963C10.1314 16.9456 10.1152 17.1099 10.1467 17.2684C10.1782 17.4269 10.256 17.5724 10.3703 17.6867C10.4846 17.801 10.6301 17.8788 10.7886 17.9103C10.9471 17.9418 11.1114 17.9256 11.2607 17.8638C11.4099 17.802 11.5375 17.6973 11.6273 17.5629C11.7171 17.4285 11.765 17.2706 11.765 17.109C11.7639 16.8926 11.6775 16.6854 11.5245 16.5325C11.3716 16.3795 11.1644 16.2931 10.948 16.292ZM10.948 18.336C10.7864 18.336 10.6285 18.3839 10.4941 18.4737C10.3597 18.5635 10.255 18.6911 10.1932 18.8403C10.1314 18.9896 10.1152 19.1539 10.1467 19.3124C10.1782 19.4709 10.256 19.6164 10.3703 19.7307C10.4846 19.845 10.6301 19.9228 10.7886 19.9543C10.9471 19.9858 11.1114 19.9696 11.2607 19.9078C11.4099 19.846 11.5375 19.7413 11.6273 19.6069C11.7171 19.4725 11.765 19.3146 11.765 19.153C11.7639 18.9366 11.6775 18.7294 11.5245 18.5765C11.3716 18.4235 11.1644 18.3371 10.948 18.336ZM8.905 4.02C8.74341 4.02 8.58545 4.06792 8.4511 4.15769C8.31674 4.24746 8.21203 4.37506 8.15019 4.52435C8.08835 4.67364 8.07217 4.83791 8.1037 4.99639C8.13522 5.15487 8.21303 5.30045 8.32729 5.41471C8.44155 5.52897 8.58713 5.60678 8.74561 5.6383C8.90409 5.66983 9.06837 5.65365 9.21765 5.59181C9.36694 5.52997 9.49454 5.42526 9.58431 5.2909C9.67408 5.15655 9.722 4.99859 9.722 4.837C9.72095 4.62064 9.63453 4.41345 9.48154 4.26046C9.32856 4.10747 9.12136 4.02105 8.905 4.02ZM8.905 8.107C8.74341 8.107 8.58545 8.15492 8.4511 8.24469C8.31674 8.33446 8.21203 8.46206 8.15019 8.61135C8.08835 8.76063 8.07217 8.92491 8.1037 9.08339C8.13522 9.24187 8.21303 9.38745 8.32729 9.50171C8.44155 9.61597 8.58713 9.69378 8.74561 9.7253C8.90409 9.75683 9.06837 9.74065 9.21765 9.67881C9.36694 9.61697 9.49454 9.51226 9.58431 9.3779C9.67408 9.24355 9.722 9.08559 9.722 8.924C9.72095 8.70764 9.63453 8.50045 9.48154 8.34746C9.32856 8.19447 9.12136 8.10805 8.905 8.107ZM8.905 10.151C8.74341 10.151 8.58545 10.1989 8.4511 10.2887C8.31674 10.3785 8.21203 10.5061 8.15019 10.6553C8.08835 10.8046 8.07217 10.9689 8.1037 11.1274C8.13522 11.2859 8.21303 11.4314 8.32729 11.5457C8.44155 11.66 8.58713 11.7378 8.74561 11.7693C8.90409 11.8008 9.06837 11.7846 9.21765 11.7228C9.36694 11.661 9.49454 11.5563 9.58431 11.4219C9.67408 11.2875 9.722 11.1296 9.722 10.968C9.72095 10.7516 9.63453 10.5444 9.48154 10.3915C9.32856 10.2385 9.12136 10.1521 8.905 10.151ZM8.905 14.238C8.74363 14.238 8.58587 14.2858 8.45162 14.3753C8.31738 14.4649 8.21266 14.5922 8.15068 14.7412C8.0887 14.8902 8.07223 15.0542 8.10335 15.2126C8.13447 15.3709 8.21179 15.5165 8.32555 15.6309C8.43931 15.7454 8.58442 15.8236 8.74257 15.8557C8.90072 15.8878 9.06483 15.8723 9.2142 15.8112C9.36357 15.7502 9.49152 15.6462 9.58189 15.5125C9.67226 15.3788 9.72101 15.2214 9.722 15.06C9.72095 14.8436 9.63453 14.6364 9.48154 14.4835C9.32856 14.3305 9.12136 14.2441 8.905 14.243M8.905 18.33C8.74341 18.33 8.58545 18.3779 8.4511 18.4677C8.31674 18.5575 8.21203 18.6851 8.15019 18.8343C8.08835 18.9836 8.07217 19.1479 8.1037 19.3064C8.13522 19.4649 8.21303 19.6104 8.32729 19.7247C8.44155 19.839 8.58713 19.9168 8.74561 19.9483C8.90409 19.9798 9.06837 19.9636 9.21765 19.9018C9.36694 19.84 9.49454 19.7353 9.58431 19.6009C9.67408 19.4665 9.722 19.3086 9.722 19.147C9.72095 18.9306 9.63453 18.7234 9.48154 18.5705C9.32856 18.4175 9.12136 18.3311 8.905 18.33ZM6.861 6.054C6.69941 6.054 6.54145 6.10192 6.4071 6.19169C6.27274 6.28146 6.16803 6.40906 6.10619 6.55835C6.04435 6.70763 6.02817 6.87191 6.0597 7.03039C6.09122 7.18887 6.16903 7.33445 6.28329 7.44871C6.39755 7.56297 6.54313 7.64078 6.70161 7.6723C6.86009 7.70383 7.02437 7.68765 7.17365 7.62581C7.32294 7.56397 7.45054 7.45926 7.54031 7.3249C7.63008 7.19055 7.678 7.03259 7.678 6.871C7.67695 6.65464 7.59053 6.44745 7.43754 6.29446C7.28455 6.14147 7.07736 6.05505 6.861 6.054ZM6.861 8.098C6.69941 8.098 6.54145 8.14592 6.4071 8.23569C6.27274 8.32546 6.16803 8.45306 6.10619 8.60235C6.04435 8.75164 6.02817 8.91591 6.0597 9.07439C6.09122 9.23287 6.16903 9.37845 6.28329 9.49271C6.39755 9.60697 6.54313 9.68478 6.70161 9.7163C6.86009 9.74783 7.02437 9.73165 7.17365 9.66981C7.32294 9.60797 7.45054 9.50326 7.54031 9.3689C7.63008 9.23455 7.678 9.07659 7.678 8.915C7.67695 8.69864 7.59053 8.49145 7.43754 8.33846C7.28455 8.18547 7.07736 8.09905 6.861 8.098ZM6.861 12.185C6.69941 12.185 6.54145 12.2329 6.4071 12.3227C6.27274 12.4125 6.16803 12.5401 6.10619 12.6893C6.04435 12.8386 6.02817 13.0029 6.0597 13.1614C6.09122 13.3199 6.16903 13.4654 6.28329 13.5797C6.39755 13.694 6.54313 13.7718 6.70161 13.8033C6.86009 13.8348 7.02437 13.8186 7.17365 13.7568C7.32294 13.695 7.45054 13.5903 7.54031 13.4559C7.63008 13.3215 7.678 13.1636 7.678 13.002C7.67695 12.7856 7.59053 12.5784 7.43754 12.4255C7.28455 12.2725 7.07736 12.1861 6.861 12.185ZM6.861 16.272C6.69941 16.272 6.54145 16.3199 6.4071 16.4097C6.27274 16.4995 6.16803 16.6271 6.10619 16.7763C6.04435 16.9256 6.02817 17.0899 6.0597 17.2484C6.09122 17.4069 6.16903 17.5524 6.28329 17.6667C6.39755 17.781 6.54313 17.8588 6.70161 17.8903C6.86009 17.9218 7.02437 17.9056 7.17365 17.8438C7.32294 17.782 7.45054 17.6773 7.54031 17.5429C7.63008 17.4085 7.678 17.2506 7.678 17.089C7.67695 16.8726 7.59053 16.6654 7.43754 16.5125C7.28455 16.3595 7.07736 16.2731 6.861 16.272ZM6.861 18.316C6.69941 18.316 6.54145 18.3639 6.4071 18.4537C6.27274 18.5435 6.16803 18.6711 6.10619 18.8203C6.04435 18.9696 6.02817 19.1339 6.0597 19.2924C6.09122 19.4509 6.16903 19.5964 6.28329 19.7107C6.39755 19.825 6.54313 19.9028 6.70161 19.9343C6.86009 19.9658 7.02437 19.9496 7.17365 19.8878C7.32294 19.826 7.45054 19.7213 7.54031 19.5869C7.63008 19.4525 7.678 19.2946 7.678 19.133C7.67695 18.9166 7.59053 18.7094 7.43754 18.5565C7.28455 18.4035 7.07736 18.3171 6.861 18.316ZM4.817 4C4.65541 4 4.49745 4.04792 4.3631 4.13769C4.22874 4.22746 4.12403 4.35506 4.06219 4.50435C4.00035 4.65364 3.98417 4.81791 4.0157 4.97639C4.04722 5.13487 4.12503 5.28045 4.23929 5.39471C4.35355 5.50897 4.49913 5.58678 4.65761 5.6183C4.81609 5.64983 4.98037 5.63365 5.12965 5.57181C5.27894 5.50997 5.40654 5.40526 5.49631 5.2709C5.58608 5.13655 5.634 4.97859 5.634 4.817C5.63295 4.60064 5.54653 4.39345 5.39354 4.24046C5.24055 4.08747 5.03336 4.00105 4.817 4ZM4.817 6.044C4.65541 6.044 4.49745 6.09192 4.3631 6.18169C4.22874 6.27146 4.12403 6.39906 4.06219 6.54835C4.00035 6.69763 3.98417 6.86191 4.0157 7.02039C4.04722 7.17887 4.12503 7.32445 4.23929 7.43871C4.35355 7.55297 4.49913 7.63078 4.65761 7.6623C4.81609 7.69383 4.98037 7.67765 5.12965 7.61581C5.27894 7.55397 5.40654 7.44926 5.49631 7.3149C5.58608 7.18055 5.634 7.02259 5.634 6.861C5.63295 6.64464 5.54653 6.43745 5.39354 6.28446C5.24055 6.13147 5.03336 6.04505 4.817 6.044ZM4.817 8.088C4.65541 8.088 4.49745 8.13592 4.3631 8.22569C4.22874 8.31546 4.12403 8.44306 4.06219 8.59235C4.00035 8.74163 3.98417 8.90591 4.0157 9.06439C4.04722 9.22287 4.12503 9.36845 4.23929 9.48271C4.35355 9.59697 4.49913 9.67478 4.65761 9.7063C4.81609 9.73783 4.98037 9.72165 5.12965 9.65981C5.27894 9.59797 5.40654 9.49326 5.49631 9.3589C5.58608 9.22455 5.634 9.06659 5.634 8.905C5.63295 8.68864 5.54653 8.48145 5.39354 8.32846C5.24055 8.17547 5.03336 8.08905 4.817 8.088ZM4.817 10.132C4.65541 10.132 4.49745 10.1799 4.3631 10.2697C4.22874 10.3595 4.12403 10.4871 4.06219 10.6363C4.00035 10.7856 3.98417 10.9499 4.0157 11.1084C4.04722 11.2669 4.12503 11.4124 4.23929 11.5267C4.35355 11.641 4.49913 11.7188 4.65761 11.7503C4.81609 11.7818 4.98037 11.7656 5.12965 11.7038C5.27894 11.642 5.40654 11.5373 5.49631 11.4029C5.58608 11.2685 5.634 11.1106 5.634 10.949C5.63295 10.7326 5.54653 10.5254 5.39354 10.3725C5.24055 10.2195 5.03336 10.1331 4.817 10.132ZM4.817 12.176C4.65541 12.176 4.49745 12.2239 4.3631 12.3137C4.22874 12.4035 4.12403 12.5311 4.06219 12.6803C4.00035 12.8296 3.98417 12.9939 4.0157 13.1524C4.04722 13.3109 4.12503 13.4564 4.23929 13.5707C4.35355 13.685 4.49913 13.7628 4.65761 13.7943C4.81609 13.8258 4.98037 13.8096 5.12965 13.7478C5.27894 13.686 5.40654 13.5813 5.49631 13.4469C5.58608 13.3125 5.634 13.1546 5.634 12.993C5.63295 12.7766 5.54653 12.5694 5.39354 12.4165C5.24055 12.2635 5.03336 12.1771 4.817 12.176ZM4.817 14.22C4.65541 14.22 4.49745 14.2679 4.3631 14.3577C4.22874 14.4475 4.12403 14.5751 4.06219 14.7243C4.00035 14.8736 3.98417 15.0379 4.0157 15.1964C4.04722 15.3549 4.12503 15.5004 4.23929 15.6147C4.35355 15.729 4.49913 15.8068 4.65761 15.8383C4.81609 15.8698 4.98037 15.8536 5.12965 15.7918C5.27894 15.73 5.40654 15.6253 5.49631 15.4909C5.58608 15.3565 5.634 15.1986 5.634 15.037C5.63295 14.8206 5.54653 14.6134 5.39354 14.4605C5.24055 14.3075 5.03336 14.2211 4.817 14.22ZM4.817 16.264C4.65541 16.264 4.49745 16.3119 4.3631 16.4017C4.22874 16.4915 4.12403 16.6191 4.06219 16.7683C4.00035 16.9176 3.98417 17.0819 4.0157 17.2404C4.04722 17.3989 4.12503 17.5444 4.23929 17.6587C4.35355 17.773 4.49913 17.8508 4.65761 17.8823C4.81609 17.9138 4.98037 17.8976 5.12965 17.8358C5.27894 17.774 5.40654 17.6693 5.49631 17.5349C5.58608 17.4005 5.634 17.2426 5.634 17.081C5.63295 16.8646 5.54653 16.6574 5.39354 16.5045C5.24055 16.3515 5.03336 16.2651 4.817 16.264ZM4.817 18.308C4.65541 18.308 4.49745 18.3559 4.3631 18.4457C4.22874 18.5355 4.12403 18.6631 4.06219 18.8123C4.00035 18.9616 3.98417 19.1259 4.0157 19.2844C4.04722 19.4429 4.12503 19.5884 4.23929 19.7027C4.35355 19.817 4.49913 19.8948 4.65761 19.9263C4.81609 19.9578 4.98037 19.9416 5.12965 19.8798C5.27894 19.818 5.40654 19.7133 5.49631 19.5789C5.58608 19.4445 5.634 19.2866 5.634 19.125C5.63295 18.9086 5.54653 18.7014 5.39354 18.5485C5.24055 18.3955 5.03336 18.3091 4.817 18.308Z" fill="black"/>
</g>
</g>
<defs>
<clipPath id="clip0_3352_12512">
<rect width="24" height="24" fill="white"/>
</clipPath>
</defs>
</svg>
