<svg width="24" height="24" viewBox="0 0 24 24" fill="none" xmlns="http://www.w3.org/2000/svg">
<g clip-path="url(#clip0_3352_12528)">
<mask id="mask0_3352_12528" style="mask-type:alpha" maskUnits="userSpaceOnUse" x="0" y="0" width="24" height="24">
<rect width="24" height="24" fill="#D9D9D9"/>
</mask>
<g mask="url(#mask0_3352_12528)">
<path d="M6.096 9.721C6.47502 9.72159 6.84536 9.83453 7.16021 10.0455C7.47506 10.2565 7.7203 10.5561 7.86494 10.9065C8.00957 11.2568 8.0471 11.6422 7.9728 12.0138C7.89849 12.3855 7.71568 12.7268 7.44746 12.9946C7.17925 13.2624 6.83767 13.4447 6.46589 13.5184C6.09411 13.5921 5.70882 13.554 5.3587 13.4088C5.00859 13.2636 4.70938 13.0179 4.49887 12.7027C4.28836 12.3875 4.176 12.017 4.176 11.638C4.17613 11.386 4.2259 11.1366 4.32248 10.9039C4.41905 10.6711 4.56053 10.4597 4.73883 10.2817C4.91713 10.1037 5.12876 9.96254 5.36163 9.86633C5.5945 9.77012 5.84404 9.72074 6.096 9.721ZM6.096 12.829C6.33144 12.8276 6.5612 12.7566 6.75636 12.6249C6.95151 12.4932 7.10333 12.3067 7.1927 12.0889C7.28207 11.871 7.30499 11.6316 7.25858 11.4008C7.21216 11.17 7.09848 10.9581 6.93186 10.7917C6.76524 10.6254 6.55313 10.5121 6.32223 10.466C6.09133 10.42 5.85198 10.4433 5.63431 10.5331C5.41664 10.6228 5.23038 10.7749 5.099 10.9703C4.96762 11.1657 4.89699 11.3956 4.896 11.631C4.89494 11.7889 4.92525 11.9454 4.98518 12.0915C5.04511 12.2375 5.13346 12.3703 5.2451 12.4819C5.35674 12.5935 5.48945 12.6819 5.63552 12.7418C5.7816 12.8017 5.93812 12.8321 6.096 12.831V12.829Z" fill="black"/>
<path d="M7.647 12.618C7.59959 12.6231 7.55165 12.6187 7.50592 12.6053C7.46019 12.5918 7.41755 12.5694 7.38046 12.5395C7.30554 12.479 7.25771 12.3912 7.2475 12.2955C7.24244 12.2481 7.24677 12.2002 7.26025 12.1544C7.27372 12.1087 7.29606 12.0661 7.32601 12.029C7.35596 11.9919 7.39292 11.961 7.43478 11.9382C7.47665 11.9154 7.52259 11.9011 7.57 11.896H16.67C16.7592 11.9054 16.8417 11.9475 16.9017 12.0141C16.9617 12.0808 16.9949 12.1673 16.9949 12.257C16.9949 12.3467 16.9617 12.4332 16.9017 12.4999C16.8417 12.5665 16.7592 12.6086 16.67 12.618H7.647Z" fill="black"/>
<path d="M18.215 9.721C18.5941 9.721 18.9648 9.83343 19.28 10.0441C19.5953 10.2547 19.841 10.5541 19.9861 10.9044C20.1312 11.2547 20.1691 11.6401 20.0952 12.012C20.0212 12.3838 19.8386 12.7254 19.5705 12.9935C19.3024 13.2616 18.9609 13.4442 18.589 13.5182C18.2171 13.5921 17.8317 13.5542 17.4814 13.4091C17.1311 13.264 16.8317 13.0183 16.6211 12.703C16.4104 12.3878 16.298 12.0171 16.298 11.638C16.2983 11.1297 16.5003 10.6422 16.8598 10.2828C17.2192 9.92332 17.7067 9.72127 18.215 9.721ZM18.215 12.829C18.4507 12.8286 18.6809 12.7584 18.8767 12.6273C19.0725 12.4962 19.2251 12.31 19.3153 12.0923C19.4054 11.8746 19.429 11.635 19.3832 11.4039C19.3373 11.1727 19.224 10.9603 19.0576 10.7935C18.8912 10.6266 18.6791 10.5128 18.4481 10.4664C18.217 10.42 17.9774 10.443 17.7595 10.5326C17.5415 10.6222 17.3549 10.7743 17.2233 10.9698C17.0917 11.1653 17.021 11.3953 17.02 11.631C17.0189 11.7885 17.0491 11.9446 17.1087 12.0903C17.1683 12.2361 17.2562 12.3685 17.3673 12.4801C17.4785 12.5917 17.6106 12.6801 17.7561 12.7404C17.9016 12.8006 18.0575 12.8314 18.215 12.831V12.829Z" fill="black"/>
<path d="M21.01 12.62C20.9208 12.6106 20.8383 12.5685 20.7783 12.5019C20.7183 12.4352 20.6851 12.3487 20.6851 12.259C20.6851 12.1693 20.7183 12.0828 20.7783 12.0161C20.8383 11.9495 20.9208 11.9074 21.01 11.898C21.201 11.898 21.269 11.698 21.269 11.498V10.471C21.2701 10.304 21.2236 10.1401 21.1351 9.99844C21.0466 9.85679 20.9196 9.74323 20.769 9.671C19.3503 9.15664 17.8531 8.89239 16.344 8.89C16.2735 8.89095 16.2041 8.87187 16.144 8.835L13.726 7.295C13.1363 6.91778 12.45 6.71914 11.75 6.723H8.983C8.36293 6.72366 7.7515 6.86847 7.197 7.146L5.72 7.882C5.21144 8.13736 4.6628 8.30344 4.098 8.373L2.949 8.518C2.88608 8.52605 2.82828 8.55682 2.78647 8.60453C2.74466 8.65223 2.72173 8.71357 2.722 8.777V10.631C2.72221 10.755 2.76255 10.8756 2.837 10.9747C2.91145 11.0739 3.01599 11.1462 3.135 11.181L4.635 11.608C4.72775 11.6263 4.80974 11.6799 4.86364 11.7576C4.91753 11.8353 4.93909 11.9309 4.92376 12.0242C4.90843 12.1174 4.85741 12.2011 4.78149 12.2574C4.70558 12.3138 4.61072 12.3384 4.517 12.326C4.49013 12.3232 4.46402 12.3154 4.44 12.303L2.94 11.876C2.66972 11.7981 2.43199 11.6347 2.2625 11.4102C2.09301 11.1857 2.0009 10.9123 2 10.631V8.776C1.99998 8.53657 2.08717 8.30533 2.24526 8.12551C2.40336 7.9457 2.62154 7.82963 2.859 7.799L4.01 7.654C4.49344 7.59335 4.96329 7.45206 5.4 7.236L6.877 6.5C7.53132 6.17194 8.25305 6.00075 8.985 6H11.75C12.5868 6.00211 13.4056 6.24324 14.11 6.695L16.45 8.185C18.0287 8.19023 19.5938 8.4781 21.071 9.035C21.3458 9.16447 21.578 9.36949 21.7406 9.62609C21.9031 9.88268 21.9893 10.1802 21.989 10.484V11.515C22.0149 11.7855 21.9323 12.0552 21.7594 12.2649C21.5866 12.4745 21.3375 12.6069 21.067 12.633H21.003L21.01 12.62Z" fill="black"/>
<path d="M8.27 8.891H7.67C7.41864 8.89145 7.16965 8.84231 6.93731 8.74639C6.70497 8.65046 6.49383 8.50965 6.316 8.332L5.839 7.855C5.78185 7.78514 5.75278 7.69649 5.75745 7.60635C5.76213 7.51621 5.80022 7.43105 5.86429 7.36747C5.92836 7.3039 6.01382 7.26648 6.104 7.26251C6.19417 7.25854 6.28259 7.2883 6.352 7.346L6.829 7.823C7.05342 8.04664 7.35717 8.17246 7.674 8.173H8.274C8.36319 8.1824 8.44574 8.22449 8.50574 8.29115C8.56575 8.3578 8.59895 8.44431 8.59895 8.534C8.59895 8.62369 8.56575 8.71019 8.50574 8.77685C8.44574 8.84351 8.36319 8.8856 8.274 8.895L8.27 8.891Z" fill="black"/>
<path d="M9.515 8.89C9.41926 8.90021 9.32338 8.87197 9.24846 8.81149C9.17354 8.75101 9.12571 8.66324 9.1155 8.5675C9.10529 8.47176 9.13353 8.37588 9.19401 8.30096C9.25449 8.22604 9.34226 8.17821 9.438 8.168H16.358C16.4054 8.16294 16.4533 8.16727 16.4991 8.18075C16.5448 8.19422 16.5874 8.21656 16.6245 8.24651C16.6616 8.27646 16.6925 8.31342 16.7153 8.35528C16.7381 8.39715 16.7524 8.44309 16.7575 8.4905C16.7626 8.53791 16.7582 8.58585 16.7448 8.63158C16.7313 8.67731 16.7089 8.71994 16.679 8.75704C16.649 8.79414 16.6121 8.82497 16.5702 8.84779C16.5284 8.8706 16.4824 8.88494 16.435 8.89H9.515Z" fill="black"/>
<path d="M2.6 9.826C2.50426 9.83621 2.40838 9.80797 2.33346 9.74749C2.25854 9.68701 2.21071 9.59924 2.2005 9.5035C2.19029 9.40776 2.21853 9.31188 2.27901 9.23696C2.33949 9.16204 2.42726 9.11421 2.523 9.104H3.223C3.31874 9.09379 3.41462 9.12203 3.48954 9.18251C3.56446 9.24299 3.61229 9.33076 3.6225 9.4265C3.63271 9.52224 3.60447 9.61812 3.54399 9.69304C3.48351 9.76796 3.39574 9.81579 3.3 9.826H2.6Z" fill="black"/>
<path d="M20.705 10.444C20.6093 10.4542 20.5134 10.426 20.4385 10.3655C20.3635 10.305 20.3157 10.2172 20.3055 10.1215C20.2953 10.0258 20.3235 9.92988 20.384 9.85496C20.4445 9.78004 20.5323 9.73221 20.628 9.722H21.459C21.5547 9.71179 21.6506 9.74003 21.7255 9.80051C21.8005 9.86099 21.8483 9.94876 21.8585 10.0445C21.8687 10.1402 21.8405 10.2361 21.78 10.311C21.7195 10.386 21.6317 10.4338 21.536 10.444H20.705Z" fill="black"/>
<path d="M2.482 18.272C2.35549 18.272 2.23416 18.2217 2.14471 18.1323C2.05526 18.0428 2.005 17.9215 2.005 17.795V14.94C2.005 14.8135 2.05526 14.6922 2.14471 14.6027C2.23416 14.5133 2.35549 14.463 2.482 14.463C2.60851 14.463 2.72984 14.5133 2.81929 14.6027C2.90874 14.6922 2.959 14.8135 2.959 14.94V17.798C2.959 17.9245 2.90874 18.0458 2.81929 18.1353C2.72984 18.2247 2.60851 18.275 2.482 18.275V18.272Z" fill="black"/>
<path d="M4.385 18.272C4.25849 18.272 4.13716 18.2217 4.04771 18.1323C3.95826 18.0428 3.908 17.9215 3.908 17.795V14.94C3.908 14.8135 3.95826 14.6922 4.04771 14.6027C4.13716 14.5133 4.25849 14.463 4.385 14.463C4.51151 14.463 4.63284 14.5133 4.72229 14.6027C4.81174 14.6922 4.862 14.8135 4.862 14.94V17.798C4.862 17.9245 4.81174 18.0458 4.72229 18.1353C4.63284 18.2247 4.51151 18.275 4.385 18.275V18.272Z" fill="black"/>
<path d="M9.151 18.272C9.02449 18.272 8.90316 18.2217 8.81371 18.1323C8.72426 18.0428 8.674 17.9215 8.674 17.795V14.94C8.674 14.8135 8.72426 14.6922 8.81371 14.6027C8.90316 14.5133 9.02449 14.463 9.151 14.463C9.27751 14.463 9.39883 14.5133 9.48829 14.6027C9.57774 14.6922 9.628 14.8135 9.628 14.94V17.798C9.628 17.9245 9.57774 18.0458 9.48829 18.1353C9.39883 18.2247 9.27751 18.275 9.151 18.275V18.272Z" fill="black"/>
<path d="M6.748 18.272C6.49498 18.272 6.25233 18.1715 6.07342 17.9926C5.89451 17.8137 5.794 17.571 5.794 17.318V15.418C5.794 15.165 5.89451 14.9223 6.07342 14.7434C6.25233 14.5645 6.49498 14.464 6.748 14.464C7.00102 14.464 7.24367 14.5645 7.42258 14.7434C7.60149 14.9223 7.702 15.165 7.702 15.418V17.326C7.702 17.4511 7.6773 17.575 7.6293 17.6905C7.58131 17.806 7.51098 17.9109 7.42234 17.9992C7.3337 18.0874 7.2285 18.1573 7.11278 18.2048C6.99706 18.2523 6.87309 18.2765 6.748 18.276V18.272Z" fill="black"/>
<path d="M13.917 18.272C13.7905 18.272 13.6692 18.2217 13.5797 18.1323C13.4903 18.0428 13.44 17.9215 13.44 17.795V14.94C13.44 14.8135 13.4903 14.6922 13.5797 14.6027C13.6692 14.5133 13.7905 14.463 13.917 14.463C14.0435 14.463 14.1648 14.5133 14.2543 14.6027C14.3437 14.6922 14.394 14.8135 14.394 14.94V17.798C14.394 17.9245 14.3437 18.0458 14.2543 18.1353C14.1648 18.2247 14.0435 18.275 13.917 18.275V18.272Z" fill="black"/>
<path d="M15.821 18.272C15.6945 18.272 15.5732 18.2217 15.4837 18.1323C15.3943 18.0428 15.344 17.9215 15.344 17.795V14.94C15.344 14.8135 15.3943 14.6922 15.4837 14.6027C15.5732 14.5133 15.6945 14.463 15.821 14.463C15.9475 14.463 16.0688 14.5133 16.1583 14.6027C16.2477 14.6922 16.298 14.8135 16.298 14.94V17.798C16.298 17.9245 16.2477 18.0458 16.1583 18.1353C16.0688 18.2247 15.9475 18.275 15.821 18.275V18.272Z" fill="black"/>
<path d="M18.183 18.272C17.93 18.272 17.6873 18.1715 17.5084 17.9926C17.3295 17.8137 17.229 17.571 17.229 17.318V15.418C17.229 15.165 17.3295 14.9223 17.5084 14.7434C17.6873 14.5645 17.93 14.464 18.183 14.464C18.436 14.464 18.6787 14.5645 18.8576 14.7434C19.0365 14.9223 19.137 15.165 19.137 15.418V17.326C19.1365 17.4508 19.1114 17.5742 19.0632 17.6892C19.0149 17.8043 18.9445 17.9087 18.8559 17.9966C18.7673 18.0844 18.6623 18.154 18.5469 18.2012C18.4314 18.2485 18.3078 18.2725 18.183 18.272Z" fill="black"/>
<path d="M21.046 18.272C20.793 18.272 20.5503 18.1715 20.3714 17.9926C20.1925 17.8137 20.092 17.571 20.092 17.318V15.418C20.092 15.165 20.1925 14.9223 20.3714 14.7434C20.5503 14.5645 20.793 14.464 21.046 14.464C21.299 14.464 21.5417 14.5645 21.7206 14.7434C21.8995 14.9223 22 15.165 22 15.418V17.326C21.9995 17.4508 21.9744 17.5742 21.9262 17.6892C21.8779 17.8043 21.8075 17.9087 21.7189 17.9966C21.6303 18.0844 21.5253 18.154 21.4099 18.2012C21.2944 18.2485 21.1708 18.2725 21.046 18.272Z" fill="black"/>
<path d="M11.514 18.272C11.261 18.272 11.0183 18.1715 10.8394 17.9926C10.6605 17.8137 10.56 17.571 10.56 17.318V15.418C10.56 15.165 10.6605 14.9223 10.8394 14.7434C11.0183 14.5645 11.261 14.464 11.514 14.464C11.767 14.464 12.0097 14.5645 12.1886 14.7434C12.3675 14.9223 12.468 15.165 12.468 15.418V17.326C12.4675 17.4508 12.4424 17.5742 12.3942 17.6892C12.3459 17.8043 12.2755 17.9087 12.1869 17.9966C12.0983 18.0844 11.9933 18.154 11.8779 18.2012C11.7624 18.2485 11.6388 18.2725 11.514 18.272Z" fill="black"/>
</g>
</g>
<defs>
<clipPath id="clip0_3352_12528">
<rect width="24" height="24" fill="white"/>
</clipPath>
</defs>
</svg>
