<svg width="145" height="24" viewBox="0 0 145 24" fill="none" xmlns="http://www.w3.org/2000/svg">
<path d="M12.589 23.3603L12.6209 23.3283C11.5254 23.7841 10.3259 24 9.23035 24C7.11123 24 4.64026 23.0804 3.44076 20.8893V22.5526C3.44076 23.3283 3.04893 23.7841 2.24126 23.7841C1.4336 23.7841 0.937805 23.3283 0.937805 22.5526V1.21749C0.937805 -0.405831 3.51273 -0.405831 3.51273 1.21749V8.24656C4.56829 6.37534 6.86334 5.38376 9.23035 5.38376C14.5241 5.38376 18.1306 9.15818 18.2666 14.1721C18.3705 18.2664 16.4274 21.7609 12.581 23.3523L12.589 23.3603ZM13.0847 20.2176C14.988 18.6262 15.7316 16.5071 15.6997 14.2121C15.6677 13.2925 15.4518 12.3409 15.1719 11.5972C14.1483 9.15818 11.6373 7.82274 9.13439 7.82274C5.91973 7.96668 3.52073 10.1498 3.52073 13.2605V16.0513C3.52073 19.5139 6.2396 21.561 9.45426 21.561C10.7977 21.4571 12.0692 21.0332 13.0927 20.2176H13.0847Z" fill="black"/>
<path d="M26.4792 6.05547C27.6467 5.52769 28.9181 5.35177 30.2536 5.38375C32.2687 5.41574 34.5638 6.05547 35.8353 8.13461V6.79117C35.8353 6.04748 36.2911 5.5197 37.1067 5.5197C37.9224 5.5197 38.4102 6.04748 38.4102 6.79117V22.4646C38.4102 23.2403 37.8824 23.7361 37.1067 23.7361C36.331 23.7361 35.8353 23.2403 35.8353 22.4646V20.7693C34.8117 22.8165 32.1968 23.984 30.1176 23.984C28.4223 23.984 26.5191 23.5282 25.0318 22.4646C22.3449 20.6254 20.9694 17.6267 21.0814 14.1641C21.1534 10.5976 23.1285 7.31895 26.5191 6.00749L26.4871 6.03948L26.4792 6.05547ZM35.8353 16.0433V13.2525C35.8353 9.75793 33.3963 7.95868 30.2216 7.81474C27.7106 7.78276 25.1757 9.1182 24.1841 11.5892C23.8642 12.3329 23.6883 13.2845 23.6563 14.2041C23.5844 16.4991 24.328 18.6182 26.2313 20.2096C27.2868 21.0252 28.5583 21.4491 29.8697 21.553C33.1164 21.553 35.6593 19.5778 35.8353 16.0433Z" fill="black"/>
<path d="M45.8311 8.52634C46.9586 6.15932 49.0777 5.52759 51.0929 5.52759C51.9006 5.52759 52.4363 5.95141 52.4363 6.76707C52.4363 7.58273 51.9086 7.96657 51.0929 7.96657C47.4544 7.96657 45.9031 10.8614 45.9031 14.4279V22.4086C45.9031 23.1522 45.3033 23.64 44.6316 23.64C43.8559 23.64 43.3281 23.1442 43.3281 22.4086V6.75907C43.3281 5.20772 45.8311 5.06378 45.8311 6.75907V8.52634Z" fill="black"/>
<path d="M57.2823 14.5639L66.1106 5.8235C67.4861 4.59201 69.2853 6.31929 67.9499 7.59076L60.7129 14.5639L68.0618 21.7129C69.2613 23.1603 67.1422 24.6397 66.0467 23.2322L57.2743 14.5639H57.2823Z" fill="black"/>
<path d="M57.2583 1.76134C57.2583 1.05029 56.6819 0.473877 55.9709 0.473877C55.2598 0.473877 54.6834 1.05029 54.6834 1.76134V22.5127C54.6834 23.2237 55.2598 23.8002 55.9709 23.8002C56.6819 23.8002 57.2583 23.2237 57.2583 22.5127V1.76134Z" fill="black"/>
<path d="M86.7021 16.5631C86.2862 16.5631 85.9264 16.819 85.7824 17.2108C85.5185 17.9225 85.1507 18.5942 84.6869 19.162C83.4474 20.5774 81.5122 21.489 79.601 21.489C77.6898 21.489 75.7866 20.6414 74.5471 19.162C74.0593 18.5942 73.6915 17.9305 73.4276 17.2188C73.2836 16.827 72.9238 16.5631 72.508 16.5631H71.1725C70.8447 16.5631 70.6128 16.875 70.7007 17.1868C71.0446 18.4823 71.6443 19.6578 72.532 20.7134C74.2592 22.7925 76.7702 23.888 79.593 23.888C82.4158 23.888 84.9188 22.7925 86.6541 20.7134C87.5257 19.6578 88.1335 18.4903 88.4693 17.1948C88.5493 16.8829 88.3254 16.5711 87.9975 16.5711H86.6941L86.7021 16.5631ZM77.6978 7.96666C78.2256 7.82272 78.8973 7.71876 79.569 7.71876C80.2407 7.71876 80.9445 7.82272 81.5122 7.96666C83.5993 8.51044 85.0787 10.0298 85.7744 11.989C85.9104 12.3808 86.2782 12.6447 86.6941 12.6447H87.9735C88.3014 12.6447 88.5333 12.3328 88.4453 12.013C87.6137 8.95025 85.4146 6.54325 82.2079 5.63163C81.2883 5.38374 80.4407 5.31177 79.593 5.31177C78.7454 5.31177 77.7618 5.38374 76.9141 5.63163C73.6835 6.54325 71.5564 8.96625 70.7247 12.013C70.6367 12.3248 70.8686 12.6447 71.1965 12.6447H72.516C72.9318 12.6447 73.2996 12.3808 73.4356 11.989C74.1313 10.0298 75.6027 8.51843 77.6818 7.96666H77.6978Z" fill="black"/>
<path d="M100.944 5.38376C103.311 5.38376 105.606 6.37534 106.662 8.24656V1.21749C106.662 -0.405831 109.237 -0.405831 109.237 1.21749V22.5446C109.237 23.3203 108.741 23.7761 107.933 23.7761C107.126 23.7761 106.734 23.3203 106.734 22.5446V20.8813C105.534 23.0724 103.063 23.992 100.944 23.992C99.8486 23.992 98.6491 23.7761 97.5535 23.3203L97.5855 23.3523C93.7391 21.7609 91.7959 18.2664 91.8999 14.1721C92.0438 9.15818 95.6423 5.38376 100.936 5.38376H100.944ZM106.662 16.0433V13.2525C106.662 10.1498 104.263 7.95868 101.048 7.81474C98.5451 7.81474 96.0342 9.15818 95.0106 11.5892C94.7307 12.3329 94.5148 13.2845 94.4828 14.2041C94.4508 16.4991 95.1865 18.6182 97.0977 20.2096C98.1213 21.0252 99.3928 21.4491 100.736 21.553C103.951 21.553 106.67 19.5059 106.67 16.0433H106.662Z" fill="black"/>
<path d="M124.766 5.67171C128.757 6.76725 131.228 10.0139 131.299 14.532V14.5C131.371 15.2757 131.02 16.1234 129.572 16.1234H115.626C116.082 19.0181 118.553 21.4171 122.087 21.4171C123.711 21.4171 125.406 20.9933 126.781 19.9378C128.013 18.8102 129.852 20.2576 128.477 21.665C126.853 23.1844 124.486 23.8161 122.191 23.7842C119.44 23.7842 116.682 22.7286 115.026 20.6415C111.212 15.6276 112.875 7.51094 119.44 5.67171C121.104 5.17591 123.007 5.2159 124.734 5.67171H124.766ZM115.514 13.9722H128.821C128.573 10.9735 126.741 8.67845 123.983 7.96675H124.015C122.847 7.64688 121.4 7.64688 120.2 7.99874C117.377 8.74243 115.714 11.1094 115.506 13.9642L115.514 13.9722Z" fill="black"/>
<path d="M137.457 8.52634C138.584 6.15932 140.704 5.52759 142.719 5.52759C143.526 5.52759 144.062 5.95141 144.062 6.76707C144.062 7.58273 143.534 7.96657 142.719 7.96657C139.08 7.96657 137.529 10.8614 137.529 14.4279V22.4086C137.529 23.1522 136.929 23.64 136.257 23.64C135.482 23.64 134.954 23.1442 134.954 22.4086V6.75907C134.954 5.20772 137.457 5.06378 137.457 6.75907V8.52634Z" fill="black"/>
<path d="M90.5484 14.604C90.5484 15.1477 90.1086 15.5875 89.5649 15.5875H69.5972C69.0534 15.5875 68.6136 15.1477 68.6136 14.604C68.6136 14.0602 69.0534 13.6204 69.5972 13.6204H89.5649C90.1086 13.6204 90.5484 14.0602 90.5484 14.604Z" fill="#FF3347"/>
</svg>
